<svg version="1.1" id="Layer_1" xmlns="http://www.w3.org/2000/svg" xmlns:xlink="http://www.w3.org/1999/xlink" x="0px" y="0px"
	 width="100%" viewBox="0 0 1024 1024" enable-background="new 0 0 1024 1024" xml:space="preserve">
<path fill="#000000" opacity="1.000000" stroke="none" 
	d="
M254.026657,798.979736 
	C204.488174,752.711487 169.572418,697.559570 149.247696,633.291992 
	C141.203537,607.856079 136.112564,581.775513 133.453674,555.168823 
	C130.707504,527.688599 130.843323,500.248505 133.970306,472.900055 
	C138.383835,434.299683 148.231201,397.043610 164.296677,361.577454 
	C197.809052,287.595642 249.589661,229.742783 318.783142,187.418869 
	C364.347748,159.548172 413.862305,142.755524 466.743622,136.017258 
	C495.735382,132.323044 524.802734,132.375900 553.932556,135.444000 
	C592.338440,139.489075 629.090210,149.408157 664.500549,164.624100 
	C668.806091,166.474228 672.641052,168.220581 674.476379,173.401016 
	C675.780151,177.080872 678.623596,180.636078 683.612915,180.846069 
	C684.803772,180.896210 686.175781,181.738083 687.076294,182.614609 
	C689.532288,185.005219 691.852478,185.400177 694.446045,182.909042 
	C696.227478,181.198044 698.120178,181.805054 699.955811,182.865662 
	C714.255981,191.127884 727.875427,200.411682 741.103577,210.283768 
	C743.042969,211.731125 743.903198,213.463608 743.054565,215.906784 
	C742.283142,218.127792 743.281189,219.915863 745.026733,221.118027 
	C749.902771,224.476120 755.222168,227.224915 759.030579,231.986710 
	C759.935364,233.117966 761.555969,233.238693 762.751282,232.629929 
	C766.178528,230.884613 768.342896,232.733063 770.648071,234.873093 
	C812.566284,273.787964 844.480408,319.712341 866.295227,372.525665 
	C879.183044,403.726990 887.570679,436.162109 891.553833,469.787354 
	C894.345093,493.350708 895.442017,516.948120 894.013428,540.555786 
	C892.148315,571.376404 886.423706,601.606934 877.288757,631.143372 
	C862.184448,679.980957 838.181274,724.050476 805.702332,763.449036 
	C777.781677,797.318115 744.645081,825.145142 707.062805,847.837646 
	C672.383118,868.777588 635.273315,883.487305 595.894409,892.645203 
	C567.887512,899.158386 539.430664,902.160400 510.738129,901.887756 
	C447.463196,901.286377 387.929871,885.832458 332.317963,855.521729 
	C303.931213,840.049744 278.034088,821.123779 254.026657,798.979736 
M262.476074,780.239502 
	C263.133362,785.821533 266.350067,789.176147 271.595428,790.830444 
	C273.799622,791.525635 275.166412,793.238159 276.220673,795.173645 
	C279.026642,800.324890 283.024445,803.992676 288.513855,806.302795 
	C292.821289,808.115479 296.630157,810.956665 299.853180,814.371216 
	C302.436920,817.108459 305.252075,819.076233 308.961639,820.139282 
	C312.086792,821.034851 315.614044,822.241394 316.657288,825.879761 
	C318.451385,832.136475 323.336182,834.404724 328.750671,836.639404 
	C341.283417,841.812195 354.800720,845.106750 365.015381,854.917236 
	C366.250763,856.103821 367.907318,856.350952 369.573700,856.709900 
	C380.976746,859.166077 391.809631,862.660889 401.461121,869.850769 
	C405.721100,873.024353 410.813477,876.437073 416.580566,876.584595 
	C420.996216,876.697571 425.163544,877.098694 429.188751,878.933044 
	C436.065430,882.066711 443.087463,883.559570 450.842529,882.904297 
	C456.822571,882.399048 463.564392,881.573669 468.794708,882.673645 
	C476.302795,884.252625 483.416077,885.061096 491.086670,885.461243 
	C502.890869,886.077087 514.099854,884.129944 525.457214,882.171875 
	C529.185486,881.529114 532.760315,880.917664 535.684875,884.047607 
	C537.344543,885.823853 539.344116,886.215149 541.609924,885.861389 
	C546.987549,885.021790 552.219910,884.780334 556.819214,888.569458 
	C558.026306,889.563904 559.705688,888.903381 561.168640,889.016235 
	C572.844299,889.917114 583.296387,884.950684 594.207886,882.239685 
	C596.556641,881.656128 598.757812,880.798035 600.035034,878.084717 
	C603.626953,870.453674 605.534180,870.079529 612.272156,875.523865 
	C614.987305,877.717712 617.432739,877.910400 620.510315,876.424316 
	C625.863342,873.839355 631.462769,871.902283 636.607422,868.711792 
	C641.472107,865.694763 646.808411,863.237915 653.017639,863.560059 
	C656.464417,863.738892 659.050842,861.526062 661.468872,858.932312 
	C667.348206,852.625610 675.091431,848.865906 682.968750,846.087769 
	C689.793884,843.680786 695.396667,838.371155 702.967712,837.936340 
	C703.247192,837.920288 703.559265,837.610474 703.768555,837.363464 
	C707.256531,833.245789 712.924438,831.119385 714.595093,825.280029 
	C714.913696,824.166504 716.242859,823.193176 717.318115,822.471619 
	C721.327454,819.781189 725.410645,817.199585 729.496338,814.625122 
	C731.201904,813.550293 733.000977,812.807190 735.135437,812.961365 
	C741.181885,813.397949 745.746216,810.490295 747.603577,804.780212 
	C748.298767,802.643127 749.128235,800.799927 750.869995,799.339783 
	C755.298767,795.626648 759.097046,791.040649 765.078735,789.540771 
	C766.398560,789.209839 767.339294,788.170349 767.806702,786.811890 
	C768.684082,784.261963 770.677734,782.805176 772.927124,781.596436 
	C776.088318,779.897644 778.536743,777.569946 780.182007,774.282166 
	C781.846375,770.956482 783.945374,768.710815 788.413574,768.231995 
	C795.187134,767.506226 799.034790,761.066040 797.863464,754.211487 
	C797.063293,749.529053 798.685120,746.111389 802.711365,743.660461 
	C805.536987,741.940430 809.252380,740.805237 810.472351,737.628235 
	C812.751770,731.692444 817.316345,727.492432 820.801697,722.495239 
	C826.089294,714.913879 828.344727,705.568176 835.190369,698.830200 
	C837.702087,696.357971 839.360413,692.497498 839.449585,688.859375 
	C839.761780,676.113953 850.999939,669.257812 855.227051,658.678833 
	C855.337280,658.402893 855.690674,658.203186 855.963989,658.016663 
	C859.329041,655.720886 860.728821,652.243469 862.084595,648.576111 
	C863.629517,644.397034 862.757385,639.790283 864.186279,635.868225 
	C866.016968,630.843445 866.398132,626.551575 863.942810,621.658630 
	C862.352295,618.489197 866.394104,605.807617 869.385193,604.386841 
	C874.146545,602.125244 874.155273,598.978638 873.083801,594.554260 
	C872.008911,590.115967 872.075867,584.737000 875.755005,581.920532 
	C885.188416,574.699036 879.923645,562.802246 885.403992,554.519348 
	C885.525818,554.335327 885.283936,553.884216 885.168701,553.573669 
	C881.268372,543.059509 884.641907,532.173340 883.591614,521.489441 
	C883.059692,516.078979 884.307373,510.438538 880.267761,505.828308 
	C874.483887,499.227478 873.914307,486.858368 880.027954,480.274872 
	C883.921570,476.081970 883.776001,471.945496 883.225464,466.992584 
	C882.535828,460.787994 877.398621,455.913879 877.193726,450.269562 
	C876.821289,440.009247 870.896179,431.755920 868.959167,421.990479 
	C866.776245,410.985138 863.301636,399.619659 857.180969,389.624878 
	C855.622742,387.080353 854.700745,384.166931 852.716187,381.846649 
	C849.755371,378.384888 849.101135,374.286530 848.661560,369.823456 
	C848.033997,363.450439 847.112305,356.626709 842.278076,351.987152 
	C836.795593,346.725555 833.587524,340.735046 832.781372,333.323212 
	C832.540833,331.111847 831.696350,329.481934 829.363281,329.005371 
	C824.329590,327.977142 822.652344,324.387695 821.592468,319.790161 
	C818.107178,304.671631 809.333435,292.687439 797.121277,285.506653 
	C796.049866,284.876648 795.060364,283.653442 794.618896,282.484436 
	C792.741455,277.512939 789.080750,273.788544 785.844116,269.823059 
	C782.086304,265.219116 778.132263,260.699829 773.741394,256.719635 
	C771.522278,254.708084 769.330383,253.021866 767.774475,250.292221 
	C765.501526,246.304611 762.158630,243.121780 757.085083,243.249268 
	C750.880249,243.405167 747.414490,240.808167 745.490112,234.674347 
	C742.668213,225.679550 728.804138,216.413330 719.646912,216.501144 
	C712.617859,216.568542 711.617004,215.836304 709.973206,209.257248 
	C708.796143,204.546188 705.433472,201.053268 701.433655,199.625992 
	C696.192322,197.755707 690.484436,196.153473 685.027771,195.712112 
	C676.095032,194.989578 671.747498,189.283752 668.069519,182.787872 
	C664.908081,177.204178 660.026917,174.903824 654.462341,174.561096 
	C650.307434,174.305206 646.564453,173.759125 643.150879,171.508087 
	C640.548523,169.791962 637.742554,169.228699 634.685425,168.940063 
	C631.102661,168.601807 627.214783,168.754242 624.377808,165.878098 
	C616.998596,158.396942 607.518799,155.302414 597.577454,154.052948 
	C590.942688,153.219055 585.033630,151.059174 579.223450,148.135269 
	C577.144348,147.088943 574.884644,145.485199 572.668152,146.986984 
	C564.782043,152.330231 555.438538,148.493301 547.149536,151.315094 
	C542.718750,152.823486 538.354858,149.884583 533.838318,150.364151 
	C528.696289,150.910126 523.875305,150.121170 519.717224,146.726898 
	C518.670593,145.872543 517.468872,145.536407 516.011841,145.619400 
	C506.597656,146.155716 497.245911,148.006546 487.722076,146.376266 
	C484.639252,145.848557 481.322144,147.057312 478.829041,149.088333 
	C475.322357,151.945129 470.684509,152.646118 467.285400,155.788986 
	C465.495911,157.443558 462.398438,158.044968 460.178894,156.728912 
	C456.404968,154.491241 449.921265,157.432297 448.480377,150.673569 
	C448.416229,150.372528 446.971588,150.313370 446.160919,150.234238 
	C444.176575,150.040543 442.177216,149.976898 440.201508,149.723450 
	C436.558136,149.256058 433.971008,150.231659 433.270416,154.263290 
	C432.770569,157.139450 431.123444,159.078552 428.255676,159.883835 
	C416.762268,163.111221 405.247406,166.277634 394.055878,170.468155 
	C391.718597,171.343323 389.213135,169.889084 386.868256,171.708084 
	C380.616119,176.558029 373.153229,179.149170 365.957764,182.205627 
	C364.263641,182.925232 362.494415,183.625610 360.630249,183.190765 
	C354.284149,181.710495 348.698486,185.355728 345.743225,189.100067 
	C337.119629,200.026108 323.495270,201.986847 313.065918,209.416031 
	C311.758453,210.347382 309.529083,210.153885 307.722809,210.177750 
	C304.669464,210.218094 303.262665,211.396149 303.116455,214.647888 
	C302.824280,221.147339 300.052551,222.892487 294.049347,220.343765 
	C291.548370,219.281967 289.290222,219.114471 287.726196,221.203430 
	C282.129364,228.678497 275.470520,235.087982 268.687042,241.442566 
	C266.504822,243.486786 264.895142,245.847458 261.710602,246.687347 
	C258.962708,247.412079 257.416077,249.307434 259.322723,252.347473 
	C260.265076,253.849991 260.772797,255.520264 259.480530,256.986389 
	C256.444916,260.430511 254.123901,264.786835 248.931854,265.626465 
	C245.310165,266.212128 244.048492,268.572235 242.989380,271.986969 
	C240.404922,280.319702 236.248123,288.028473 229.123947,293.323181 
	C225.822678,295.776672 222.754745,297.912598 221.301605,301.929535 
	C220.311340,304.666992 218.079849,305.927887 215.143311,306.287598 
	C207.067337,307.276764 205.032104,309.186066 202.949905,317.085571 
	C202.150040,320.120117 201.900192,323.565216 199.126648,325.553314 
	C196.391403,327.513916 194.823196,330.103790 193.680817,333.101990 
	C192.812149,335.381775 191.306198,337.130127 189.143402,338.217987 
	C187.124680,339.233398 185.891495,340.946228 184.496506,342.625854 
	C177.461426,351.096375 179.007996,363.068817 172.520477,371.749420 
	C172.183640,372.200134 172.438583,373.060669 172.321548,373.713104 
	C170.896973,381.654968 170.890015,390.089203 164.301331,396.219543 
	C163.135834,397.304016 163.269104,398.965179 163.223526,400.474274 
	C162.970184,408.863007 157.374924,416.168152 158.265823,424.803162 
	C158.311005,425.241150 157.939590,425.735260 157.723862,426.184875 
	C156.418167,428.906311 155.455673,431.711060 155.215210,434.759277 
	C154.992950,437.576691 153.478317,439.668610 151.340179,441.478973 
	C145.562134,446.371277 145.483734,450.264526 150.921310,455.231384 
	C158.066605,461.758240 157.729462,475.110107 150.002502,481.100677 
	C146.956192,483.462494 147.118744,485.643097 149.069977,488.287872 
	C151.715225,491.873230 151.727020,495.625305 150.198090,499.645844 
	C147.666855,506.302124 142.640671,512.345398 144.981323,520.249146 
	C145.062592,520.523621 144.843933,520.890625 144.753967,521.211487 
	C142.273300,530.058167 143.685669,538.306702 148.522537,546.049805 
	C149.594116,547.765137 150.838745,549.803589 150.100510,551.671387 
	C147.820938,557.438843 149.397812,563.575073 148.049133,569.333679 
	C147.019226,573.731201 147.847885,577.516418 149.828674,581.322510 
	C150.977997,583.530762 152.847015,585.803162 152.887543,588.073486 
	C153.056656,597.553589 158.078629,605.821838 159.026215,615.105408 
	C160.319717,627.778076 165.691620,639.452148 169.775391,651.291382 
	C172.031891,657.833130 174.375458,665.351379 179.847061,670.493835 
	C184.320908,674.698608 186.346802,680.992676 192.002853,684.153137 
	C193.023224,684.723267 193.817001,686.217285 194.135452,687.436279 
	C195.577927,692.957764 197.170319,698.481934 197.984512,704.109863 
	C198.455551,707.365723 199.586823,709.430481 202.145233,711.508362 
	C209.092911,717.151123 213.437561,724.897888 217.044159,732.864868 
	C218.187592,735.390747 218.967941,737.515076 221.419922,738.981995 
	C227.160034,742.415833 231.431305,747.075500 233.476059,753.661133 
	C235.222595,759.286255 239.194656,763.407104 244.109711,766.249390 
	C250.353714,769.860168 254.143921,776.820374 261.552307,778.738586 
	C261.797668,778.802124 261.941711,779.257019 262.476074,780.239502 
z"/>
<path fill="#000000" opacity="1.000000" stroke="none" 
	d="
M179.549011,640.358948 
	C168.104813,607.756775 161.391235,574.641418 159.554016,540.481995 
	C155.969223,473.829559 169.372238,410.926544 201.441727,352.354706 
	C228.948944,302.115387 266.518494,260.800140 313.941467,228.449860 
	C354.863831,200.534073 399.633759,182.084702 448.257263,173.041153 
	C483.171204,166.547485 518.260010,165.557236 553.639221,169.464661 
	C597.413025,174.299179 638.798889,186.964096 677.565674,207.319046 
	C717.891907,228.492783 753.024597,256.578461 782.596130,291.540253 
	C813.237183,327.766571 836.111572,368.234802 850.636841,413.339539 
	C859.754028,441.650818 864.769165,470.741272 866.448669,500.505524 
	C868.674561,539.950806 864.577332,578.643250 853.951172,616.601135 
	C839.711853,667.465149 814.837585,712.690491 780.240051,752.545654 
	C746.544495,791.361816 706.253418,821.508362 659.611023,843.046936 
	C628.578857,857.377136 596.013977,866.606323 562.157104,871.443359 
	C544.971985,873.898499 527.695435,875.377686 510.402191,875.125366 
	C466.401123,874.483459 423.797302,866.379211 382.849976,849.863220 
	C326.378204,827.085388 278.613098,792.414062 239.778595,745.558594 
	C213.715607,714.112549 193.503479,679.229431 179.549011,640.358948 
M174.351669,602.269409 
	C179.483902,624.229370 186.823349,645.424988 196.316788,665.881165 
	C214.909592,705.944458 240.287643,741.241882 272.014923,771.832092 
	C297.723663,796.619568 326.919006,816.594177 358.922028,832.588440 
	C401.210449,853.722961 445.942413,865.588074 492.999420,868.448547 
	C511.937073,869.599731 530.939819,868.762939 549.874329,866.866333 
	C585.629333,863.284851 619.849182,853.997803 652.640015,839.455933 
	C708.796326,814.552185 755.609802,777.737488 792.192932,728.328796 
	C831.657898,675.028015 854.927063,615.486572 859.884766,549.064697 
	C862.616455,512.466064 860.833191,476.169403 852.060181,440.472260 
	C833.614868,365.418701 794.764221,302.802704 735.317627,253.458511 
	C679.011963,206.721436 614.236450,179.936539 541.048828,174.166870 
	C509.514221,171.680878 478.134888,172.866547 447.115143,179.218201 
	C350.627441,198.975204 274.905975,249.912567 220.603943,332.013214 
	C185.823990,384.597900 167.591675,442.807739 165.175613,505.854584 
	C163.939789,538.103027 166.484573,570.032532 174.351669,602.269409 
z"/>
<path fill="#000000" opacity="1.000000" stroke="none" 
	d="
M394.536194,765.552368 
	C356.603516,753.907837 319.046234,742.399231 281.498169,730.860779 
	C267.976990,726.705688 254.465424,722.518188 240.977280,718.257507 
	C237.492310,717.156677 233.997757,715.952576 231.056824,713.648682 
	C228.226837,711.431763 226.790436,708.612915 227.445999,704.923767 
	C228.084183,701.332397 230.764786,699.870239 233.851471,699.588745 
	C240.157089,699.013733 242.112198,695.037048 242.791748,689.547119 
	C244.462830,676.046997 244.394302,662.659851 240.851501,649.411743 
	C239.785385,645.425110 238.127014,642.419800 233.408813,641.927612 
	C229.694672,641.540222 227.296082,639.125732 227.012238,635.330078 
	C226.716293,631.372864 228.756744,628.599121 232.493851,627.345764 
	C235.639877,626.290710 238.874969,625.485535 242.099426,624.685852 
	C244.014999,624.210754 245.942535,623.865662 247.427902,622.582336 
	C247.012955,619.883911 244.912537,619.800903 243.304062,619.188904 
	C238.793304,617.472656 234.209412,615.943298 229.731979,614.146729 
	C226.780136,612.962402 224.133835,611.200989 221.988159,608.781250 
	C217.278229,603.469788 218.953354,597.658142 225.734085,595.800476 
	C234.039581,593.525146 234.964142,592.310730 235.747238,583.559326 
	C237.018433,569.353027 236.617325,555.325806 232.067932,541.618530 
	C230.928986,538.186829 229.349075,535.821716 225.434830,535.135376 
	C221.821487,534.501709 219.538055,531.960449 219.319977,528.182556 
	C219.104523,524.450256 221.574478,522.235352 224.711182,521.197327 
	C229.752853,519.528931 234.927399,518.237610 240.090042,516.966736 
	C244.439529,515.895996 246.455338,513.822510 244.698059,509.112427 
	C243.013367,504.596924 241.600052,499.973724 240.219574,495.352417 
	C236.920944,484.310120 240.689926,476.232147 251.683884,473.224884 
	C258.008026,471.494995 260.371948,468.577820 260.139709,462.181183 
	C259.801575,452.867065 260.061646,443.546326 257.209167,434.503723 
	C256.224640,431.382751 254.819717,429.465149 251.045532,429.181366 
	C245.635742,428.774628 243.451004,425.425720 244.504211,419.745636 
	C245.118469,416.432983 243.677185,414.992340 240.836899,414.468597 
	C237.897308,413.926514 234.906754,413.666901 231.946686,413.228394 
	C226.371368,412.402557 223.311798,409.595642 222.805573,404.893768 
	C222.249832,399.732208 225.292572,397.346466 229.659409,395.898224 
	C231.393555,395.323120 232.995499,394.295868 234.753021,393.853668 
	C244.676178,391.356689 249.954529,383.832611 250.675186,374.870056 
	C251.323410,366.808441 256.364166,364.729187 261.538452,361.573120 
	C271.778809,355.326965 281.983246,349.021271 292.161133,342.673859 
	C293.775482,341.667114 295.933228,341.028625 296.147614,337.960114 
	C287.255737,333.847504 276.765259,333.835754 266.275513,328.402313 
	C301.654388,308.658447 335.717773,289.648773 369.754150,270.654114 
	C366.631256,264.033264 366.718292,260.750061 370.084839,259.843903 
	C374.949188,258.534637 376.072662,261.972290 376.661224,265.658722 
	C378.883453,266.116241 380.269928,264.690948 381.813599,263.831604 
	C399.569122,253.947128 417.310944,244.037918 435.036713,234.100220 
	C437.171112,232.903595 439.226135,232.247742 441.662720,233.252213 
	C458.911072,240.362717 477.319305,242.472473 495.475983,245.669006 
	C510.246765,248.269470 524.964783,251.110352 538.502930,257.978119 
	C557.614075,267.673004 570.532288,282.562164 576.322998,303.389771 
	C576.844055,305.263672 577.017090,307.336243 578.427551,308.788879 
	C580.045593,309.232513 581.112183,308.263916 582.199524,307.585114 
	C615.061584,287.071289 649.731567,284.223389 686.141052,296.523834 
	C701.732666,301.791199 717.333069,307.106476 733.607666,310.080505 
	C744.836914,312.132507 756.132202,311.931976 767.450867,311.792053 
	C769.176636,311.770691 771.413513,311.007111 772.380310,313.131256 
	C773.286987,315.123627 771.383362,316.450226 770.502808,317.984314 
	C770.420227,318.128174 770.313782,318.258667 770.214966,318.392731 
	C764.639526,325.951385 764.809265,326.416168 773.961548,327.705048 
	C776.560852,328.071106 777.525024,328.777557 777.909973,331.992828 
	C779.006958,341.155457 781.013733,350.221527 782.962341,359.261017 
	C783.441956,361.485840 785.702332,362.410461 788.048462,362.678406 
	C792.669739,363.206238 796.832336,364.268799 798.520874,369.572388 
	C800.308105,375.185974 798.774597,379.797882 794.883240,383.734131 
	C788.912170,389.773987 782.838684,395.718597 776.654480,401.539825 
	C771.884033,406.030304 772.140625,408.529938 778.328430,410.562866 
	C782.766296,412.020844 785.736206,414.765839 787.925415,418.730286 
	C793.087891,428.079041 795.935059,438.053009 796.312683,448.728271 
	C796.407166,451.397858 796.615540,454.059418 794.391724,456.181305 
	C793.505066,457.027344 793.172668,458.320374 793.905457,459.406738 
	C796.693420,463.540039 794.701477,467.528687 793.351624,471.338440 
	C792.194092,474.605438 792.053833,477.330048 794.147949,480.246216 
	C796.883545,484.055664 796.859863,488.387421 795.613770,492.706329 
	C794.137634,497.822662 792.451477,502.877960 790.913574,507.976990 
	C789.318115,513.266968 790.506042,515.973633 795.851379,517.445740 
	C799.713318,518.509338 802.472168,520.534973 804.197754,523.965881 
	C815.494141,546.425964 816.820557,569.138672 805.724487,592.105713 
	C804.374817,594.899231 802.036865,596.735657 799.467041,598.393982 
	C797.832764,599.448608 796.348877,601.280762 798.735352,602.726135 
	C806.480408,607.416931 808.687134,615.517822 811.110840,623.161926 
	C817.078796,641.983887 816.462097,660.523682 807.109619,678.374878 
	C805.056946,682.292908 802.257141,684.773987 797.999634,686.222046 
	C746.309143,703.802368 694.674866,721.547729 642.998169,739.168701 
	C594.943054,755.554688 546.753845,771.555908 498.852020,788.376770 
	C486.934784,792.561523 476.157623,789.589111 465.221313,786.686157 
	C441.579742,780.410583 418.206787,773.162781 394.536194,765.552368 
M672.499390,591.674500 
	C709.890686,591.554810 747.282227,592.814392 784.919373,591.645386 
	C780.167847,587.820496 774.032715,589.428345 768.110962,587.114380 
	C772.187378,584.837585 775.608765,585.773682 778.932495,585.928772 
	C780.894714,586.020325 783.673462,588.060059 784.423340,585.000000 
	C785.017212,582.576904 784.218262,579.668274 781.600830,578.025757 
	C779.879333,576.945435 778.033447,576.306091 775.968079,576.191650 
	C774.414246,576.105591 772.679382,576.154297 771.877319,574.606079 
	C772.494568,572.445007 775.206665,573.693359 775.677307,571.775513 
	C774.205078,570.335693 771.571228,571.289246 770.508118,568.840576 
	C773.300354,566.062805 780.512573,570.809570 780.303711,563.588806 
	C780.159424,558.596802 781.039368,552.435791 772.461304,551.554504 
	C777.544678,550.015259 780.106079,547.852173 779.482239,542.507996 
	C778.704346,535.843201 772.061462,540.014160 769.601196,536.712036 
	C771.073181,535.048706 772.835632,534.926453 774.419312,534.976929 
	C779.122681,535.126648 780.462280,532.362427 780.604126,528.365662 
	C780.639648,527.366638 780.637451,526.363220 780.734680,525.369934 
	C781.611389,516.415649 781.616699,516.416199 774.913391,512.541870 
	C776.339233,509.286652 780.708130,512.289062 782.624878,508.931671 
	C779.574951,507.133575 775.742004,510.060913 773.133240,507.071503 
	C775.766846,503.627960 780.158630,505.983398 783.609131,503.497925 
	C778.305603,501.811035 772.955566,505.814545 768.311951,501.511505 
	C773.320068,498.549316 779.560181,501.560486 784.811890,496.606232 
	C605.101685,497.753479 426.582611,497.782776 248.034576,497.299591 
	C254.424683,501.137329 261.919312,500.089691 268.649048,502.411560 
	C262.491211,505.560394 256.393860,503.427032 249.647934,502.480225 
	C251.722534,509.751343 259.159241,505.655182 262.341888,509.398346 
	C260.353394,512.820801 256.037933,509.627350 253.985550,512.410461 
	C254.865845,516.012634 259.265320,513.505920 260.612610,517.133850 
	C255.341644,517.363586 253.225754,520.216980 254.401642,525.285400 
	C255.723495,530.983032 256.495117,536.744263 256.293427,542.605713 
	C256.191284,545.575562 257.321594,546.787537 260.498322,546.449158 
	C263.492340,546.130188 266.655762,545.971741 269.469086,547.921326 
	C267.937714,550.998474 265.133911,549.377563 263.067535,550.253235 
	C264.336365,551.512268 267.244080,550.316040 267.429504,553.290161 
	C266.056976,554.549072 264.323395,554.090088 262.737732,554.319702 
	C260.480011,554.646667 257.209808,553.093811 256.505676,556.698425 
	C255.810623,560.256409 259.697357,559.267151 261.194427,560.719116 
	C261.377228,560.896423 261.346161,561.294250 261.400269,561.593079 
	C255.108612,564.126465 254.493576,565.664062 257.738251,571.009155 
	C250.291824,574.163025 252.060150,581.546631 249.328491,587.468140 
	C255.613007,587.845398 261.131958,583.725403 267.427551,587.798035 
	C261.081390,590.567383 254.788788,589.287598 248.720215,592.445740 
	C255.323181,593.618164 260.766571,591.001221 266.437653,591.576477 
	C280.881073,593.041565 295.391602,592.871643 309.877594,592.617737 
	C317.848877,592.478027 325.859161,590.714661 333.760559,591.192505 
	C353.750427,592.401367 373.718384,591.141846 393.694916,591.382202 
	C447.486664,592.029480 501.291534,591.622009 555.091125,591.567566 
	C570.575195,591.551880 586.067017,590.936279 601.541077,591.265198 
	C624.862549,591.760864 648.180420,591.531799 672.499390,591.674500 
M478.449860,248.270264 
	C466.578918,246.443604 454.960663,243.591537 443.673431,239.481873 
	C440.847992,238.453140 438.516815,238.408783 435.696381,240.006271 
	C411.786835,253.548584 387.762177,266.887604 363.783447,280.307892 
	C338.208893,294.621338 312.639282,308.943634 287.096649,323.313782 
	C285.464325,324.232147 283.274170,324.730591 282.779358,327.596497 
	C286.892670,330.174713 291.747345,330.622253 296.333313,331.741730 
	C321.690521,337.931580 347.626648,341.814148 372.472137,350.002380 
	C403.156860,360.115021 428.425964,377.116791 442.269531,407.747528 
	C443.737213,410.994995 445.733521,411.550659 448.454071,409.104828 
	C452.788727,405.207794 457.087219,401.267426 461.508850,397.470947 
	C479.473267,382.046509 498.844482,368.451752 517.825989,354.354034 
	C532.548157,343.419769 547.257324,332.459808 562.215881,321.854889 
	C573.330200,313.975464 574.102600,312.409607 569.502930,299.582306 
	C569.334534,299.112701 569.119019,298.660187 568.937805,298.194946 
	C560.549255,276.658539 544.143555,264.120880 522.767578,257.295471 
	C508.614319,252.776291 493.919983,250.754791 478.449860,248.270264 
M708.971802,309.744141 
	C699.945923,306.813721 690.928650,303.856201 681.892578,300.957672 
	C647.251526,289.845978 614.163696,292.287018 583.528320,313.021576 
	C546.821167,337.865540 511.612701,364.774536 476.434540,391.712219 
	C474.821777,392.947235 472.923615,394.041443 472.168518,396.603729 
	C473.222351,396.545715 473.907623,396.655273 474.485596,396.455109 
	C507.872192,384.892242 540.433960,389.055176 572.462097,401.779419 
	C594.717041,410.621033 616.396057,421.018890 640.178528,425.574890 
	C643.983276,426.303802 646.524414,425.863647 649.502930,423.213379 
	C672.032471,403.166687 694.929199,383.530396 717.348938,363.363220 
	C730.968018,351.112549 744.467834,338.684021 756.813354,325.097992 
	C758.115173,323.665405 760.088928,322.241302 759.455505,320.027252 
	C758.732117,317.498962 756.150879,318.121643 754.310852,318.018311 
	C739.117249,317.165161 724.277466,314.416046 708.971802,309.744141 
M475.272278,763.188354 
	C477.873474,763.741333 480.457397,764.405518 483.081238,764.812317 
	C485.211121,765.142578 486.581421,763.956726 487.163635,761.955078 
	C487.762878,759.894958 486.936707,758.428772 485.097260,757.402893 
	C483.686676,756.616150 481.482483,756.864502 480.924011,754.380615 
	C483.056366,753.677429 486.352539,756.188721 486.828644,752.450439 
	C487.283783,748.877075 483.994293,748.982544 481.771332,748.164490 
	C481.615753,748.107239 481.449738,748.078674 481.289032,748.035034 
	C468.276520,744.502014 455.245941,741.033691 442.260956,737.402283 
	C437.354706,736.030151 432.553864,734.281067 426.516663,732.317322 
	C430.147522,730.461243 432.012085,731.630249 433.823273,732.107666 
	C448.634644,736.011597 463.413757,740.037720 478.210938,743.995850 
	C480.251587,744.541809 482.426056,745.743591 484.750183,743.284546 
	C476.452759,739.362427 467.372284,738.764709 458.708984,734.098877 
	C461.816345,732.838623 463.509949,733.685425 465.227325,734.115479 
	C471.356934,735.650452 477.467377,737.270142 483.628876,738.664124 
	C485.168854,739.012634 487.112854,739.185120 488.173889,737.468750 
	C489.316864,735.619751 487.712463,734.428955 486.834503,733.067017 
	C484.748108,729.830444 481.829620,727.860168 478.129944,726.831543 
	C467.879150,723.981201 457.658569,721.022583 447.417114,718.138489 
	C418.739746,710.062683 390.055115,702.012695 361.385925,693.908081 
	C359.946808,693.501160 357.904022,693.608032 357.807373,691.247925 
	C359.277924,690.107178 360.741211,690.769592 362.135742,691.149780 
	C372.897308,694.083740 383.663788,697.001587 394.398315,700.032166 
	C421.945129,707.809265 449.470703,715.661560 477.024323,723.414429 
	C479.149506,724.012512 481.516907,725.214233 483.479584,722.797363 
	C485.550812,720.246826 486.095703,717.528625 484.857269,714.411743 
	C483.353088,710.626160 481.105011,708.015747 476.770355,707.185059 
	C471.717926,706.216797 466.755798,704.735352 461.801453,703.313049 
	C458.736938,702.433167 455.842041,702.318420 453.325989,704.487427 
	C450.568573,706.864441 452.638611,709.397400 453.721680,711.773926 
	C451.084503,712.665039 449.076965,711.545227 447.038483,710.992798 
	C400.478729,698.375977 353.930969,685.715027 307.375732,673.081604 
	C292.464417,669.035278 277.529907,665.074158 262.628845,660.990723 
	C260.661194,660.451538 258.729889,660.128113 256.725769,660.303955 
	C255.162170,660.441223 253.692108,660.922485 253.408569,662.747253 
	C253.124451,664.575867 254.364655,665.540833 255.838257,666.068848 
	C257.710785,666.739929 259.657471,667.206909 261.578461,667.739258 
	C278.102478,672.318359 294.644379,676.834717 311.133636,681.535522 
	C313.386658,682.177856 316.327240,682.260437 317.926636,686.305908 
	C296.265808,681.135498 275.985291,674.221985 253.939636,669.691467 
	C257.829163,673.766052 263.528839,671.845764 265.818634,676.534180 
	C262.931000,677.990540 260.732361,676.045715 258.343475,675.828064 
	C255.776352,675.594238 252.064301,672.485168 250.928345,676.188660 
	C249.819458,679.803955 254.461716,679.916077 256.870026,680.600342 
	C278.621185,686.779968 300.434448,692.740784 322.221436,698.794739 
	C341.450592,704.137878 360.675812,709.495483 379.882538,714.918518 
	C381.716156,715.436157 384.126862,715.533936 384.831604,719.171265 
	C370.503479,715.668823 356.799561,712.455139 343.170898,708.948853 
	C329.666260,705.474609 316.237549,701.705261 302.775513,698.065308 
	C304.452515,701.280762 308.452667,701.547791 309.018127,704.253357 
	C309.796753,707.979004 312.410034,708.452942 314.966827,709.318359 
	C320.011383,711.025879 325.155365,712.439636 330.199585,714.148071 
	C332.489655,714.923767 335.172668,715.007080 336.664185,716.986450 
	C336.951691,719.410889 334.114014,718.303833 333.659424,720.688416 
	C356.410461,727.612427 379.196533,734.547058 401.982574,741.481750 
	C401.749390,742.264709 401.516205,743.047668 401.283020,743.830627 
	C376.279449,736.283081 350.996674,729.841125 325.661560,723.508301 
	C329.426941,726.075317 333.619690,727.524963 337.943298,728.536621 
	C351.644012,731.742432 354.530365,733.916504 364.869751,741.150391 
	C368.305450,743.554199 374.096863,746.914307 379.523163,742.695801 
	C381.164124,741.420166 397.179321,745.556702 398.500488,747.232056 
	C399.216217,748.139648 398.732147,749.172058 398.957977,750.098022 
	C399.460724,752.159424 401.133453,752.307495 402.329987,752.292053 
	C404.403320,751.699890 402.689178,749.345886 404.749146,749.060669 
	C431.157715,754.671326 456.420502,764.846497 482.921387,770.499268 
	C475.569794,764.580444 465.480347,765.287903 457.904938,759.798645 
	C463.835358,758.975769 469.024231,761.696472 475.272278,763.188354 
M463.911560,614.612244 
	C468.096283,616.429443 473.216003,616.023560 476.565094,620.131653 
	C465.217804,619.779846 454.852020,614.411194 443.245819,613.691528 
	C446.985352,617.282593 452.895172,615.637451 456.025970,619.831482 
	C454.605316,621.504333 453.299744,620.770081 452.063568,620.506775 
	C439.710114,617.875305 427.706848,613.996704 415.620667,610.390991 
	C397.119141,604.871521 378.387512,600.277954 359.077820,598.721436 
	C353.133301,598.242310 347.049072,597.233643 341.143738,598.854492 
	C341.049713,599.403198 340.955719,599.951904 340.861694,600.500610 
	C370.153076,609.075256 399.444489,617.649902 428.735870,626.224548 
	C428.493256,627.039795 428.250671,627.855042 428.008057,628.670288 
	C410.990509,623.837524 394.061737,618.658264 376.930298,614.270203 
	C360.035553,609.942749 343.625610,603.548523 326.066986,601.775513 
	C349.722534,609.563171 373.647308,616.384094 398.039093,624.898926 
	C395.585236,626.557617 394.466736,626.063599 393.368439,625.750366 
	C378.480927,621.505249 363.597382,617.246399 348.710876,612.997681 
	C341.990723,611.079712 335.317047,608.963867 328.524963,607.346252 
	C324.401947,606.364258 321.474854,609.911316 323.023956,613.549927 
	C323.925934,615.668457 326.133942,616.010498 327.976746,616.538086 
	C344.458099,621.257446 360.965546,625.885864 377.478638,630.493347 
	C378.896515,630.888916 380.960663,631.538330 381.748871,630.299438 
	C383.956085,626.829834 386.707855,628.465210 389.231750,629.142273 
	C413.824585,635.739441 438.389465,642.440857 462.972473,649.074829 
	C467.147522,650.201416 471.354309,651.224304 475.577820,652.152344 
	C478.389954,652.770325 481.150391,652.291565 482.374481,649.417908 
	C483.740387,646.211304 480.928955,645.005005 478.778076,643.845764 
	C477.342072,643.071716 475.673553,642.705994 474.083954,642.243774 
	C463.540771,639.177795 452.983582,636.159424 442.453308,633.049866 
	C441.319183,632.714844 439.689819,632.636902 439.692078,630.714844 
	C441.449921,629.172485 443.251160,630.409973 444.850616,630.829834 
	C453.544739,633.112183 462.177399,635.627502 470.855988,637.970825 
	C473.258026,638.619446 475.796906,639.893372 478.789185,637.367981 
	C471.537811,632.544250 462.647400,632.835938 455.972748,627.726562 
	C458.095337,627.519348 460.152252,627.714661 462.117249,628.248413 
	C466.937286,629.557617 471.737000,630.800659 476.757629,631.229309 
	C482.025665,631.679077 483.533081,630.097717 482.041351,625.048645 
	C479.724091,617.205566 466.465576,610.329712 455.938995,612.051575 
	C458.790405,612.985291 460.971039,613.699402 463.911560,614.612244 
M540.870117,397.672119 
	C511.367432,393.680542 482.013733,395.882111 476.498260,402.542511 
	C478.315033,403.356720 480.193359,402.891449 481.900879,402.526978 
	C497.748352,399.144165 513.386719,401.210480 528.912292,404.452240 
	C545.921875,408.003815 562.018005,414.389618 578.042603,420.975616 
	C599.248901,429.691254 620.027405,439.631836 642.986938,443.371185 
	C648.157349,444.213287 652.224304,443.598145 656.201477,439.911224 
	C683.067078,415.006348 710.167419,390.354248 736.982483,365.395477 
	C746.481873,356.553711 756.278748,347.990112 764.959961,338.295471 
	C766.295654,336.803802 767.893799,335.019470 765.877075,333.121460 
	C764.121338,331.468994 761.671143,331.409332 759.957642,333.094666 
	C754.773132,338.194000 749.499878,343.198669 745.323792,349.266998 
	C739.269409,358.064819 731.311218,365.014954 723.255920,371.976440 
	C718.595825,376.003754 713.359070,379.251892 709.293396,384.387207 
	C704.345764,390.636688 699.859375,399.005096 689.612366,398.606720 
	C688.826721,398.576141 687.968079,399.649048 687.191711,400.269470 
	C675.135132,409.904877 661.815063,417.965820 651.084290,429.254425 
	C648.827393,431.628632 646.208313,432.260620 642.920532,431.505188 
	C630.773315,428.714172 618.529419,426.429077 606.727234,422.162811 
	C602.578186,420.663025 598.440002,418.955750 594.155457,417.819733 
	C588.449036,416.306702 581.312195,418.018280 578.371948,410.487244 
	C578.185913,410.010712 577.286743,409.759949 576.676147,409.509583 
	C565.279236,404.836121 553.635132,400.904419 540.870117,397.672119 
M361.327118,352.272217 
	C344.411743,347.288269 326.925171,344.776428 309.872711,340.384918 
	C307.414276,339.751801 305.365997,340.656067 303.304382,341.956055 
	C292.456940,348.796387 281.537567,355.522919 270.706879,362.389404 
	C269.148346,363.377472 266.884338,363.907043 266.724030,366.371124 
	C268.043945,368.268097 270.040283,367.808319 271.783875,367.947906 
	C290.433411,369.440735 309.078613,368.165070 327.676575,367.218414 
	C356.918732,365.729980 385.255585,367.989471 411.332794,382.929993 
	C412.793427,383.766876 414.271942,385.337921 416.603912,383.941467 
	C416.863770,381.597260 415.321991,380.082642 413.816528,378.574402 
	C410.723907,375.476074 406.871582,373.422821 403.303894,370.977203 
	C401.287231,369.594879 399.318787,368.648254 396.869080,370.188599 
	C395.312378,371.167389 393.204346,371.300293 392.758026,369.190155 
	C391.532806,363.397552 386.829529,361.457214 382.343903,359.619141 
	C375.730469,356.909241 368.868652,354.805573 361.327118,352.272217 
M543.445374,642.671631 
	C543.737061,647.468994 546.365295,649.355957 551.048767,649.097290 
	C554.522095,648.905518 558.033325,648.865173 561.495605,649.148987 
	C565.412415,649.470032 569.484497,648.916748 573.173706,650.922363 
	C579.478577,654.349976 590.228699,650.315369 591.671082,643.415222 
	C594.369202,630.507263 593.965210,617.578064 589.285828,605.092407 
	C587.442078,600.172791 583.639282,598.667969 578.441284,600.018250 
	C574.593811,601.017639 570.749878,602.032043 566.916748,603.084900 
	C563.989258,603.888977 560.945618,602.467041 558.029236,603.665039 
	C552.476440,605.945984 546.780396,607.805786 540.916626,609.109558 
	C537.313171,609.910767 536.383118,611.643860 537.897827,615.223511 
	C541.494385,623.722839 543.576477,632.602661 543.445374,642.671631 
M494.464264,411.322144 
	C486.715240,411.582245 478.977173,411.901001 471.825897,415.685394 
	C489.296844,412.853607 506.529755,413.891083 523.769104,417.573029 
	C541.575623,421.376129 569.953247,431.637573 572.378113,435.842621 
	C570.434326,436.722137 568.761536,435.812805 567.142639,435.062622 
	C558.053162,430.850647 548.487061,427.958588 539.032104,424.742798 
	C522.481140,419.113525 505.571899,415.924072 488.034576,417.163666 
	C482.516571,417.553680 476.893616,417.747070 471.268799,419.841217 
	C475.412994,423.017975 475.412598,423.010406 480.661102,422.735687 
	C481.824341,422.674835 482.991974,422.703430 484.156677,422.664337 
	C511.944977,421.731415 537.632507,430.299316 563.089050,440.007507 
	C566.098633,441.155212 566.737793,442.743744 564.807983,445.562317 
	C575.973145,449.105682 586.338501,453.542908 597.546082,455.236633 
	C593.424377,451.516113 587.073608,451.859100 583.623108,447.001373 
	C594.016052,447.984314 603.306824,453.143097 613.572937,454.348083 
	C607.540588,449.906891 600.409241,448.086487 593.601013,445.648956 
	C579.093567,440.454895 576.421997,439.313843 574.703308,435.597137 
	C585.759216,437.974426 595.286865,443.949982 605.896973,446.182312 
	C606.101501,445.617065 606.306091,445.051849 606.510620,444.486603 
	C593.012756,439.226837 579.514893,433.967072 566.017029,428.707275 
	C566.243347,428.116608 566.469727,427.525909 566.696045,426.935211 
	C574.023865,427.146301 580.125732,432.778290 587.660889,432.026245 
	C551.872314,415.721405 516.126160,399.173462 474.946442,409.721313 
	C493.398071,406.249237 511.398560,407.604401 528.874329,414.466400 
	C517.804626,412.472626 506.597656,411.894714 494.464264,411.322144 
M369.910919,490.775238 
	C373.755035,487.045166 377.894287,488.571686 382.255768,489.750580 
	C391.027100,492.121490 399.916534,490.558411 410.007507,490.590759 
	C404.806458,485.842957 398.491913,486.933960 394.234863,483.411255 
	C408.817200,483.089569 422.094879,490.671753 436.649200,490.193420 
	C433.540924,487.940460 430.040039,487.081024 426.544983,486.129333 
	C412.419617,482.283081 398.316162,478.356323 384.213745,474.426422 
	C382.120178,473.843018 380.284729,473.048401 379.223389,470.746582 
	C376.618622,465.097229 372.321411,463.392029 366.250183,465.390137 
	C364.769104,465.877594 363.235229,466.396057 361.895660,465.640961 
	C356.668640,462.694550 350.819824,462.325684 345.119324,461.319916 
	C328.229919,458.340149 311.875183,453.076599 295.097534,449.623352 
	C292.886414,449.168304 290.565643,448.534943 288.388000,451.001068 
	C290.619537,453.500458 293.514923,454.154175 296.319946,454.889587 
	C316.286163,460.124207 336.267761,465.300323 356.221985,470.580017 
	C358.089935,471.074280 360.592407,470.865112 361.667206,474.298126 
	C352.824951,472.770416 344.740631,470.542419 336.605103,468.498413 
	C328.540192,466.472198 320.557861,463.973419 312.158081,463.332275 
	C317.080902,466.368500 323.472656,466.029419 328.008972,470.131042 
	C326.049805,472.347107 323.766418,469.627136 321.911102,471.574860 
	C323.582123,474.537445 326.725677,474.699463 329.444427,475.431244 
	C340.527405,478.414337 351.652893,481.239868 362.729645,484.245392 
	C364.677307,484.773895 367.141144,484.804901 368.036163,487.597961 
	C363.978394,491.316345 359.768768,485.456879 354.973602,487.920715 
	C360.139648,489.179626 364.320251,491.274323 369.910919,490.775238 
M525.407471,699.098938 
	C529.552368,700.510498 529.754089,705.461121 533.078613,707.858215 
	C529.678894,702.561279 527.173889,697.476318 534.804688,691.667358 
	C529.229553,691.951904 525.698853,691.742798 522.329468,692.382935 
	C514.642700,693.843506 507.256958,696.468750 499.888123,699.065002 
	C494.030518,701.128845 492.713776,704.090637 495.345276,709.806946 
	C497.785980,715.108765 500.466522,720.380249 501.516510,726.100708 
	C503.863586,738.887878 516.139099,742.463501 526.466553,740.533508 
	C531.940369,739.510498 533.891724,736.737793 533.744690,731.041748 
	C533.498779,721.515259 530.802185,712.730957 525.910461,704.557983 
	C524.994019,703.026855 522.891174,701.535828 525.407471,699.098938 
M495.332977,458.663025 
	C488.911560,459.477783 483.803375,463.306305 477.969879,467.189453 
	C490.016296,469.286102 502.062744,471.382782 514.879944,473.613617 
	C512.118042,476.876495 509.283478,476.492950 507.176697,477.663879 
	C503.448975,479.735657 499.528381,482.901825 499.950989,486.972412 
	C500.418671,491.477417 505.535034,490.563049 509.071838,490.777039 
	C510.888672,490.886963 512.833923,491.032349 514.526184,490.519073 
	C516.845093,489.815674 518.349792,486.943207 521.038391,488.130188 
	C522.568481,486.762726 521.196289,484.329742 523.355652,483.782257 
	C525.822815,484.126801 525.891602,488.011292 528.909180,487.375580 
	C530.722900,485.236420 527.694336,482.874146 529.840271,480.023743 
	C538.258179,491.791962 548.678345,494.353577 562.369446,486.397125 
	C554.033142,480.831024 545.820862,478.853607 537.302063,478.218262 
	C533.531311,477.937042 531.182129,476.983612 531.008362,472.934235 
	C530.761780,467.190857 528.253174,463.513245 522.134094,463.011139 
	C521.493347,462.958588 520.757629,462.741608 520.269470,462.348328 
	C512.963318,456.462067 504.713806,456.544342 495.332977,458.663025 
M513.688171,610.001160 
	C515.641602,607.439453 516.294250,609.928223 517.041809,610.994019 
	C518.773926,613.463440 520.317749,616.064880 522.534363,619.550842 
	C522.736572,614.485718 519.508667,612.053772 518.844177,608.670166 
	C518.295349,605.875732 516.481995,605.252319 513.876221,604.804077 
	C506.395752,603.517395 499.763641,606.357910 493.054138,608.667542 
	C489.677887,609.829773 488.630157,612.644592 490.337616,615.956787 
	C493.183624,621.477539 494.857727,627.393921 496.399506,633.350708 
	C497.409973,637.254517 499.929688,639.234985 503.769043,639.747192 
	C506.897217,640.164673 510.027618,640.607544 513.171570,640.855347 
	C518.543518,641.278870 520.853699,639.070923 520.937561,633.673523 
	C521.069336,625.191162 517.357239,617.913086 513.688171,610.001160 
M396.219299,639.432434 
	C375.762146,633.508789 355.197205,627.925598 334.898285,621.501892 
	C326.207458,618.751587 318.085297,617.441895 309.841278,622.050842 
	C311.405975,623.504944 313.595001,624.184937 315.816101,624.824585 
	C325.249329,627.541199 334.685577,630.247864 344.103058,633.018127 
	C346.846161,633.825012 349.722321,634.585632 349.114258,638.578308 
	C348.933441,639.765503 349.528290,640.935913 350.861847,641.276245 
	C352.442322,641.679565 353.352417,640.789368 353.934326,639.413452 
	C354.316833,638.509033 354.575653,637.488159 356.375397,636.928528 
	C362.183960,638.583191 368.507690,640.686401 374.981445,642.105286 
	C378.367828,642.847534 382.380035,646.309448 385.507294,641.142212 
	C385.824768,640.617615 387.824615,640.703735 388.838684,641.071655 
	C398.237579,644.481628 408.279968,645.488525 417.692169,648.710449 
	C427.689209,652.132690 431.764587,653.272583 438.618439,652.726685 
	C424.696289,646.295776 410.451294,644.208740 396.219299,639.432434 
M300.954712,389.473480 
	C291.648407,390.214294 282.361389,390.256042 273.030823,389.540161 
	C268.286560,389.176178 263.324371,388.370819 258.671722,390.818481 
	C278.283875,393.851501 298.156677,393.165009 317.821106,395.601013 
	C305.674408,397.863434 293.438049,396.758148 281.274139,397.439270 
	C295.160675,398.895874 309.056427,399.849579 323.022705,399.894806 
	C332.671448,399.926056 342.319519,400.393921 351.965515,400.735229 
	C353.191315,400.778595 354.747864,400.558746 354.951965,401.339722 
	C355.534210,404.134979 352.667786,403.815765 352.948975,405.663483 
	C354.987274,406.041901 356.939575,406.298584 358.958649,405.768768 
	C359.053772,404.220398 356.243591,404.013672 357.400482,402.034576 
	C359.565308,399.646393 363.161346,401.891937 365.877686,399.734711 
	C360.098755,396.455170 353.385559,398.163483 347.833618,395.255798 
	C355.048126,392.437988 362.484772,395.906189 369.669556,394.248871 
	C369.541779,392.829498 368.622375,392.711212 367.884094,392.517914 
	C361.436768,390.830017 354.942871,389.308746 348.235626,389.307159 
	C332.749481,389.303528 317.263336,389.400970 300.954712,389.473480 
M556.110779,712.495483 
	C560.716309,709.585876 564.791321,710.333069 568.612183,714.086121 
	C570.572327,716.011414 572.989014,716.632874 575.393494,714.815186 
	C577.290588,713.381104 579.029663,711.638123 578.225647,708.936157 
	C577.302307,705.833130 574.660767,705.265503 571.877258,705.096313 
	C570.880554,705.035645 569.865906,704.938171 568.882263,705.053162 
	C565.324707,705.469055 563.069885,704.041321 561.139648,700.943176 
	C556.420044,693.367920 553.834900,692.615540 545.326294,695.479309 
	C542.960083,696.275696 540.654724,697.252014 538.316833,698.133362 
	C535.988342,699.011108 535.353149,700.414917 536.410828,702.813965 
	C538.625549,707.837463 540.719971,712.917664 542.722961,718.029724 
	C544.193726,721.783386 546.131592,721.231445 548.097168,718.668213 
	C550.083984,716.077271 552.496582,714.152222 556.110779,712.495483 
M486.903687,431.356659 
	C484.800140,432.115143 485.355194,432.707489 487.068451,432.972412 
	C492.162476,433.760284 497.273590,434.436981 502.370972,435.203827 
	C523.384094,438.364990 543.329529,445.454193 563.492188,451.766022 
	C571.374390,454.233551 579.371826,456.333069 587.316772,458.600189 
	C576.454529,453.119598 565.307922,448.580322 553.858643,444.733246 
	C532.315125,437.494446 510.534363,431.618317 486.903687,431.356659 
M367.149750,375.108215 
	C348.220490,369.734192 329.226807,373.038788 310.244110,374.420197 
	C310.887115,374.860870 311.556915,374.805237 312.182495,374.946106 
	C319.094818,376.502899 327.470795,371.203857 333.017181,379.373077 
	C333.255585,379.724213 334.287689,379.646790 334.935516,379.593231 
	C345.750336,378.698792 356.470917,380.157196 367.225006,380.816589 
	C369.196625,380.937469 371.210266,380.824066 373.168793,380.556976 
	C374.572754,380.365540 375.591187,379.485229 375.435760,377.806458 
	C375.285706,376.185364 374.226440,375.442719 372.787445,375.343201 
	C371.148315,375.229797 369.492371,375.359924 367.149750,375.108215 
M666.320435,664.174805 
	C662.802063,664.197205 659.571533,665.155640 656.326538,666.562195 
	C653.817505,667.649902 651.337952,669.633545 648.331543,668.831543 
	C643.010315,667.411987 637.764526,668.511292 632.492554,669.003479 
	C629.043457,669.325439 625.876831,670.110718 624.633728,673.957031 
	C624.028748,675.828613 623.906128,677.850952 625.619812,678.965820 
	C628.508606,680.845276 631.892883,680.479858 634.671326,678.956055 
	C639.724976,676.184326 645.147583,674.741638 650.687561,673.746643 
	C654.576843,673.048096 658.597290,673.263062 662.480408,672.156433 
	C665.938477,671.170837 667.832275,668.987000 668.510559,665.600830 
	C668.754456,664.382996 668.284302,663.669800 666.320435,664.174805 
M279.944427,485.367798 
	C283.184753,485.865204 286.790771,489.267334 289.393555,484.295502 
	C287.992310,481.193420 284.236755,483.405060 282.637024,481.281128 
	C282.315063,479.219513 285.541412,479.984772 284.936890,477.908173 
	C273.397308,474.157043 252.253647,477.224518 248.856262,483.092499 
	C253.550797,488.863678 259.042999,480.894897 263.450958,483.757568 
	C268.670441,487.147278 274.040894,484.964966 279.944427,485.367798 
M768.329956,486.612488 
	C774.253662,482.010681 780.791077,484.989899 787.261108,485.359711 
	C788.318481,481.291321 785.450195,480.183929 782.926147,479.215698 
	C774.997620,476.174469 766.689941,475.950653 758.363647,476.571411 
	C754.999878,476.822205 752.977844,478.757477 753.882751,482.618896 
	C751.163330,483.014954 748.841064,483.353180 746.518799,483.691376 
	C753.435913,486.483337 760.763062,484.232300 768.329956,486.612488 
M282.499603,384.170502 
	C274.431396,384.170502 266.363159,384.170502 258.294952,384.170502 
	C268.731201,386.340363 359.182129,386.988647 363.219330,384.530457 
	C335.931335,381.541260 309.695129,384.321869 282.499603,384.170502 
M751.463501,602.321472 
	C742.171082,602.783020 742.171082,602.783020 740.649475,606.352844 
	C746.129700,608.059509 753.185547,603.613586 757.350952,610.631836 
	C757.500122,610.883301 758.297913,610.794495 758.792603,610.789185 
	C764.436096,610.728577 770.119446,611.032471 775.708191,610.443115 
	C779.183472,610.076599 783.284058,609.806335 785.323425,605.910278 
	C783.565674,603.866638 781.490479,604.287231 779.533447,604.159424 
	C770.438721,603.565613 761.346497,602.933472 751.463501,602.321472 
M250.515930,606.502136 
	C253.235596,610.513245 257.612732,610.399353 261.639771,610.632263 
	C266.940613,610.938904 272.273834,610.636719 277.590820,610.728760 
	C282.931335,610.821228 285.803741,604.077820 291.965088,606.785767 
	C291.404297,601.895020 288.388885,602.112061 285.892487,602.171570 
	C275.170105,602.427185 264.549194,604.789307 253.746948,603.697205 
	C252.371689,603.558105 251.308548,604.613892 250.515930,606.502136 
M450.442291,658.374268 
	C458.573334,660.783936 466.659424,663.389038 475.061676,664.715393 
	C477.279083,665.065430 479.724731,664.739685 480.406433,662.179626 
	C481.095123,659.593323 479.541870,657.432678 477.237549,656.591797 
	C470.271301,654.049744 463.057892,652.404297 454.664215,651.045105 
	C457.124420,653.634766 460.688324,652.971436 461.658844,656.223694 
	C456.648590,657.305359 452.120392,653.575806 447.229340,655.598877 
	C447.740662,657.065613 448.872864,657.462280 450.442291,658.374268 
M494.460327,426.208954 
	C486.460876,426.177185 478.431702,425.733948 470.536316,428.086304 
	C484.478241,427.262604 498.258575,428.200836 511.939240,430.636719 
	C525.615479,433.071869 538.896912,437.228455 552.477966,440.089264 
	C534.159485,432.574463 515.465454,426.633331 494.460327,426.208954 
M296.127319,469.077942 
	C299.368103,469.484802 302.467865,469.285950 305.243500,467.351837 
	C304.466370,465.329498 302.837463,465.042572 301.491058,464.697021 
	C291.869537,462.227539 282.227783,459.833008 272.561951,457.543427 
	C270.739838,457.111786 268.147186,456.360413 267.642822,459.150726 
	C267.214752,461.518768 269.774719,461.875153 271.392609,462.335754 
	C279.357117,464.603149 287.369751,466.701447 296.127319,469.077942 
M761.658813,631.634766 
	C759.828491,632.013062 758.022827,631.907898 756.320435,631.137573 
	C754.043396,630.107178 752.013306,630.182373 750.932190,632.687866 
	C749.901794,635.075928 751.169434,637.246155 753.144775,638.110840 
	C758.495667,640.452820 763.947327,642.768799 770.026428,642.538513 
	C770.346375,635.782715 769.062622,634.009949 761.658813,631.634766 
M456.703308,490.810303 
	C458.403137,490.699982 460.237030,491.271179 462.690704,489.527405 
	C447.720276,485.840057 433.734314,481.984894 419.475342,479.351227 
	C419.366241,479.807709 419.257111,480.264191 419.147980,480.720642 
	C431.398224,484.058899 443.648499,487.397125 456.703308,490.810303 
M662.739319,469.045715 
	C661.010132,470.266541 660.180725,471.709717 661.773621,473.600800 
	C663.201477,475.296021 665.193542,475.430206 666.675049,474.182953 
	C669.666321,471.664795 673.182434,469.645447 675.552490,466.016571 
	C673.895813,464.631592 672.544861,463.191010 673.953552,459.918365 
	C669.686707,463.393280 666.478821,466.005798 662.739319,469.045715 
M341.240051,488.153107 
	C336.916870,486.938049 332.609619,485.661163 328.262634,484.538300 
	C326.520569,484.088348 324.810577,484.376892 324.347565,486.517029 
	C323.884888,488.655792 324.822266,490.260529 326.993164,490.547241 
	C332.873749,491.323944 338.755981,491.031342 344.795990,490.742096 
	C344.297516,488.626373 342.947815,488.738831 341.240051,488.153107 
M735.940002,609.449158 
	C731.909485,609.746216 727.842651,611.571594 723.887817,608.950012 
	C722.909729,608.301636 721.927734,608.935730 721.521179,609.987549 
	C721.128845,611.002563 721.426331,611.969238 722.351746,612.601562 
	C723.800171,613.591309 725.455994,613.676086 727.130249,613.503967 
	C734.361206,612.760864 741.319458,610.281250 748.691040,610.344788 
	C744.765625,609.019775 740.805298,609.260132 735.940002,609.449158 
M297.597046,611.642517 
	C302.267059,612.584778 306.923553,613.880920 311.706238,612.243774 
	C303.606171,608.262329 295.099487,609.382629 286.581604,610.401001 
	C289.964966,610.772766 293.348297,611.144531 297.597046,611.642517 
M679.359558,457.048553 
	C680.871887,458.604309 679.006714,460.222748 679.012146,461.898834 
	C681.016296,461.512299 682.061829,460.392181 683.083374,459.343872 
	C684.869202,457.511169 687.531311,456.175018 687.312256,453.080841 
	C687.275269,452.558899 686.138733,451.714020 685.498413,451.702881 
	C682.224976,451.645966 680.570312,453.908234 679.359558,457.048553 
M315.804901,713.146790 
	C314.189789,712.798279 312.467682,711.774780 310.705475,714.141968 
	C316.338013,716.682007 321.852478,717.785583 327.610626,718.063354 
	C324.317078,715.378174 320.371338,714.470093 315.804901,713.146790 
M334.251312,482.276306 
	C339.058167,484.325134 344.063812,485.363831 349.327057,485.164215 
	C342.785675,481.889557 335.679535,480.934296 328.457245,480.343262 
	C330.149048,480.906219 331.840851,481.469177 334.251312,482.276306 
M674.455322,452.056122 
	C671.159912,455.232941 667.391418,457.970917 665.018555,462.029114 
	C669.838684,458.835754 674.729858,455.772339 678.507446,451.175415 
	C676.637573,449.865265 675.887695,451.082916 674.455322,452.056122 
M268.128967,467.005371 
	C271.813354,469.490875 275.870148,470.036316 280.214386,469.165222 
	C276.221466,467.772308 272.811920,463.944214 268.128967,467.005371 
M681.517761,689.168274 
	C681.246216,685.669067 678.981873,685.579163 676.569336,686.602478 
	C675.127014,687.214172 674.191284,688.909790 675.386414,690.332703 
	C677.382202,692.709045 679.463196,691.850708 681.517761,689.168274 
M287.780487,457.746765 
	C292.202484,458.829956 296.489777,460.600372 301.262543,459.939240 
	C294.887024,458.292603 288.511505,456.645966 282.135986,454.999329 
	C282.039490,455.395660 281.942963,455.792023 281.846466,456.188385 
	C283.576019,456.632812 285.305603,457.077209 287.780487,457.746765 
M524.994324,610.139343 
	C526.049072,611.753052 527.291931,613.150146 529.159424,614.172729 
	C529.627258,609.038452 528.633728,608.051086 524.994324,610.139343 
M462.956818,483.629456 
	C461.531464,483.430786 460.050323,482.673004 457.903687,484.108093 
	C461.908966,485.006042 464.870483,486.722748 468.781311,486.516876 
	C467.242523,484.411530 465.288788,484.442688 462.956818,483.629456 
M308.221710,717.715027 
	C307.240692,717.499329 306.173370,716.730286 304.950531,718.569458 
	C309.185242,719.643005 313.051788,720.623230 316.918304,721.603455 
	C314.611542,719.253113 311.571564,719.069885 308.221710,717.715027 
M473.590363,488.671692 
	C475.647644,488.994232 477.711823,490.471832 480.240662,488.885834 
	C475.595764,486.478760 474.800232,486.458588 473.590363,488.671692 
M445.805542,702.962463 
	C444.550934,701.531677 443.174744,700.821289 441.685638,702.577637 
	C441.114227,703.251587 441.084717,704.369629 441.828705,704.820923 
	C443.541992,705.860352 444.940247,705.205994 445.805542,702.962463 
M297.008057,710.346313 
	C298.104095,710.564453 299.199585,711.053284 300.768677,710.100891 
	C298.563507,708.494934 296.702942,707.012695 293.899170,707.854797 
	C294.015289,709.795105 295.454498,709.643738 297.008057,710.346313 
z"/>
<path fill="#000000" opacity="1.000000" stroke="none" 
	d="
M507.063385,857.176941 
	C504.027252,856.141663 504.706726,853.872314 504.698212,852.000244 
	C504.654266,842.361450 504.648926,832.721558 504.763428,823.083679 
	C504.788788,820.948425 503.764587,818.036804 507.050110,817.279480 
	C510.132812,816.568970 513.034119,816.804993 514.523499,820.379517 
	C515.020325,821.571960 515.900208,822.604675 516.600220,823.703064 
	C517.075989,823.391785 517.507751,823.265991 517.554321,823.055115 
	C518.130737,820.445190 517.528320,816.875000 521.934448,817.301941 
	C526.359619,817.730652 525.111938,821.276062 525.138184,823.855835 
	C525.232666,833.161011 525.192810,842.468323 525.116211,851.774109 
	C525.096313,854.193054 525.487000,856.982971 521.752930,857.320923 
	C518.283630,857.635010 517.243347,855.596863 516.434998,852.719238 
	C515.379578,848.962036 515.158264,844.892029 512.565430,840.920776 
	C510.332886,845.101318 511.606415,849.064697 511.345947,852.816406 
	C511.164978,855.423828 510.840332,857.523743 507.063385,857.176941 
z"/>
<path fill="#000000" opacity="1.000000" stroke="none" 
	d="
M357.925964,818.079529 
	C353.120819,817.079224 352.516388,814.801147 354.652069,810.870667 
	C359.411438,802.111694 363.979675,793.242920 368.377960,784.296936 
	C369.948090,781.103271 371.685608,780.513062 374.567444,782.403503 
	C376.093414,783.404541 377.778412,784.162415 379.308350,785.158020 
	C384.420349,788.485046 386.151703,792.349121 382.999329,797.383484 
	C378.126953,805.164734 375.034882,813.700867 371.030579,821.838135 
	C370.135406,823.657227 368.978088,824.365173 367.078369,823.279724 
	C365.330109,822.280762 363.284546,821.386047 364.151978,818.809570 
	C364.731140,817.089355 365.683990,815.496582 366.446960,813.836304 
	C367.261963,812.062805 368.451996,810.339294 367.232452,807.838806 
	C361.454987,808.888000 362.297882,815.688782 357.925964,818.079529 
z"/>
<path fill="#000000" opacity="1.000000" stroke="none" 
	d="
M470.878998,835.729126 
	C470.264893,839.087463 469.913788,842.066589 469.256439,844.976501 
	C467.852478,851.191406 463.886719,853.696960 457.504303,852.582947 
	C455.706085,852.268982 453.922394,851.854248 452.114899,851.615540 
	C449.034790,851.208679 448.408234,849.369202 448.902069,846.639465 
	C450.705200,836.672424 452.624420,826.721802 454.152740,816.711914 
	C454.843445,812.188049 456.784912,811.539856 460.963593,812.437927 
	C471.981476,814.806030 473.786255,816.978088 472.304718,827.958679 
	C471.971863,830.425598 471.442291,832.865906 470.878998,835.729126 
M458.327057,835.551758 
	C458.073853,836.845581 457.798828,838.135681 457.572601,839.434204 
	C457.242767,841.327515 457.249420,843.483398 459.307770,844.065491 
	C461.752228,844.756592 462.218842,842.409607 462.579590,840.690186 
	C463.627777,835.694153 464.551361,830.670898 465.453644,825.645752 
	C465.751312,823.987793 465.916504,822.058594 463.752899,821.611877 
	C461.701508,821.188354 460.822296,822.836426 460.441650,824.526367 
	C459.680786,827.904480 459.064026,831.315063 458.327057,835.551758 
z"/>
<path fill="#000000" opacity="1.000000" stroke="none" 
	d="
M557.083435,834.435120 
	C557.542908,838.645325 558.179871,842.440796 558.187744,846.237549 
	C558.200012,852.140747 554.540344,855.940979 549.180420,856.148376 
	C544.124939,856.343872 540.480896,852.987305 539.629578,847.350891 
	C538.563843,840.294556 537.627014,833.221802 537.482483,826.076233 
	C537.341431,819.096130 540.763000,815.460388 547.165222,815.649475 
	C552.784119,815.815430 556.595032,820.381653 556.337402,826.487732 
	C556.259399,828.334717 555.780273,829.800903 553.879639,830.328186 
	C551.974915,830.856628 550.627563,830.013550 549.919617,828.238403 
	C549.258972,826.581848 548.979004,824.150269 546.484253,825.063477 
	C544.347595,825.845642 545.071167,828.167847 545.197998,829.934814 
	C545.289185,831.205444 544.923218,832.627075 546.111816,833.708191 
	C549.720886,833.606750 553.485229,829.749756 557.083435,834.435120 
M547.091858,844.995422 
	C548.424988,845.989136 549.791504,845.858643 550.252563,844.293579 
	C551.220276,841.009277 548.702209,839.431458 546.577820,837.258179 
	C545.752380,839.993042 546.163330,842.205566 547.091858,844.995422 
z"/>
<path fill="#000000" opacity="1.000000" stroke="none" 
	d="
M431.175446,805.804688 
	C435.643494,806.460876 439.001099,807.517944 438.285400,812.949585 
	C437.004089,822.673462 436.140717,832.452148 434.895172,842.181335 
	C434.654419,844.061584 435.114899,847.076904 431.878113,847.045715 
	C429.034149,847.018372 427.300659,845.592224 427.504639,842.304199 
	C427.615204,840.522522 426.424774,839.201660 424.635284,838.644104 
	C422.667877,838.031067 421.393188,839.104431 420.498749,840.612305 
	C419.040985,843.069885 417.125824,843.855225 414.697235,842.232666 
	C412.275360,840.614563 413.861633,838.597534 414.635193,836.918213 
	C418.883942,827.694946 423.235931,818.518982 427.581573,809.340637 
	C428.279053,807.867554 428.779022,806.151001 431.175446,805.804688 
z"/>
<path fill="#000000" opacity="1.000000" stroke="none" 
	d="
M643.817871,806.175659 
	C650.222168,808.393738 655.496643,811.242126 656.725037,818.387329 
	C657.574707,823.329712 654.401184,828.086060 649.417725,829.126892 
	C644.792603,830.092896 639.193909,826.588501 638.140076,822.118652 
	C637.886414,821.042786 637.920044,820.066895 638.895569,819.476440 
	C640.309998,818.620422 641.802246,817.733582 643.558044,818.435364 
	C644.879639,818.963684 645.656128,820.699280 647.755432,820.137634 
	C649.321960,817.692932 647.554626,816.249573 645.707703,815.228271 
	C643.393860,813.948792 640.840027,813.110596 638.423828,812.007385 
	C633.833679,809.911377 630.305908,806.891663 629.224792,801.622131 
	C628.267883,796.957825 630.342041,793.829102 634.222717,791.807495 
	C638.227295,789.721375 642.027222,790.418091 645.080139,793.775940 
	C646.243408,795.055359 647.875916,796.634949 646.643677,798.590393 
	C645.495728,800.411987 643.532532,800.981934 641.375732,800.459290 
	C640.591370,800.269165 639.824890,800.005432 638.733826,799.681274 
	C637.763672,804.037903 641.017883,804.735474 643.817871,806.175659 
z"/>
<path fill="#000000" opacity="1.000000" stroke="none" 
	d="
M402.235474,812.643555 
	C404.547760,813.971924 406.095154,815.261963 405.071564,817.985413 
	C404.149902,820.437805 402.345886,820.541260 400.201111,820.205688 
	C397.640411,819.805054 395.440125,820.461304 394.544800,823.110779 
	C393.575775,825.978455 394.968414,827.905457 397.533752,829.149841 
	C399.872864,830.284424 402.188202,831.379761 400.513245,834.734497 
	C398.875977,838.013672 396.619385,836.284363 394.562714,835.534485 
	C383.323395,831.435974 383.279999,831.395874 387.498322,820.356628 
	C390.289581,813.052063 393.354706,805.851379 396.094452,798.528381 
	C397.393341,795.056580 399.322937,794.287170 402.598297,795.847351 
	C404.845154,796.917603 407.311493,797.529663 409.549347,798.615295 
	C411.471313,799.547668 414.429321,799.889832 413.302917,803.355591 
	C412.229462,806.658325 410.051666,806.501282 407.349335,805.508301 
	C405.251160,804.737183 402.997498,804.553833 401.429138,806.644897 
	C399.922668,808.653442 400.022675,810.663208 402.235474,812.643555 
z"/>
<path fill="#000000" opacity="1.000000" stroke="none" 
	d="
M668.563477,800.378418 
	C666.727722,797.365784 665.040039,794.688293 663.416321,791.972473 
	C661.852173,789.356445 659.966064,787.447998 656.555542,788.338379 
	C654.346741,788.915039 653.147644,787.812012 652.318420,785.880737 
	C651.322388,783.560974 652.762939,782.439941 654.386841,781.473022 
	C657.818176,779.429810 661.299622,777.470276 664.768738,775.490967 
	C666.279236,774.629211 667.836121,773.885803 669.169006,775.738831 
	C670.268311,777.267273 671.366760,778.914246 669.472778,780.586121 
	C666.613647,783.109863 667.811707,785.583862 669.376892,788.134399 
	C673.209290,794.379761 676.976379,800.665588 680.857849,806.880188 
	C682.194031,809.019592 682.622253,810.659119 680.009155,812.241333 
	C677.339294,813.857971 676.104980,812.502136 674.848877,810.428406 
	C672.864746,807.152832 670.781006,803.937622 668.563477,800.378418 
z"/>
<path fill="#000000" opacity="1.000000" stroke="none" 
	d="
M591.290894,841.606750 
	C588.617615,832.130737 586.165466,823.004028 583.509949,813.936829 
	C582.753113,811.352478 583.143005,809.779724 585.846191,809.029480 
	C588.502014,808.292297 589.871704,809.364746 590.553406,811.943909 
	C592.374878,818.834595 594.448730,825.661011 596.153748,832.579224 
	C597.285583,837.171997 599.286682,839.913757 604.486816,838.165283 
	C606.913513,837.349426 608.234680,838.370361 608.939148,840.681763 
	C609.766113,843.394714 608.095154,844.240906 606.008240,844.839294 
	C604.098267,845.386841 602.153076,845.831970 600.280273,846.485229 
	C593.494751,848.852051 593.503784,848.877991 591.290894,841.606750 
z"/>
<path fill="#000000" opacity="1.000000" stroke="none" 
	d="
M486.165222,856.179871 
	C483.578094,856.001099 482.388031,854.975769 482.579254,852.637024 
	C483.460480,841.858521 484.279236,831.074829 485.220978,820.301697 
	C485.413635,818.097839 485.931793,815.951111 489.083435,816.257080 
	C492.368652,816.576050 492.548645,818.643616 492.347015,821.215149 
	C491.553864,831.331848 490.851593,841.455688 490.051758,851.571838 
	C489.878387,853.764343 489.558990,856.025757 486.165222,856.179871 
z"/>
<path fill="#000000" opacity="1.000000" stroke="none" 
	d="
M624.279968,822.839539 
	C625.665405,826.636597 626.922119,830.067871 628.222534,833.482422 
	C629.103149,835.794922 628.452942,837.273071 626.063599,838.098694 
	C623.921326,838.838989 622.551819,838.261353 621.738159,836.143005 
	C617.806519,825.906189 613.854004,815.677429 609.903870,805.447693 
	C608.964600,803.015259 610.038696,801.720947 612.293030,800.937744 
	C614.772156,800.076477 615.987061,801.210999 616.817200,803.403137 
	C619.229126,809.772339 621.713745,816.114075 624.279968,822.839539 
z"/>
<path fill="#000000" opacity="1.000000" stroke="none" 
	d="
M234.962738,470.628815 
	C230.937973,469.720154 230.485931,467.102692 231.279755,464.056030 
	C231.839172,461.909088 233.418869,460.654144 235.720993,460.903351 
	C238.184753,461.170074 239.652664,462.829041 239.893509,465.165131 
	C240.223022,468.361084 238.274643,469.995850 234.962738,470.628815 
z"/>
<path fill="#000000" opacity="1.000000" stroke="none" 
	d="
M647.932617,225.947296 
	C651.603394,223.817566 654.437439,224.426254 655.873474,228.030899 
	C656.964722,230.770309 655.405090,232.788635 652.797363,233.852005 
	C651.143188,234.526520 649.509766,234.239075 648.245361,232.949249 
	C646.255981,230.919983 646.108398,228.638947 647.932617,225.947296 
z"/>
<path fill="#000000" opacity="1.000000" stroke="none" 
	d="
M336.702301,786.082947 
	C335.061859,782.862244 335.742523,780.547546 338.622223,779.178101 
	C340.862549,778.112732 342.807098,778.955261 344.234985,780.900024 
	C345.634430,782.806091 345.262695,784.737854 343.771912,786.299438 
	C341.628479,788.544739 339.250214,788.866821 336.702301,786.082947 
z"/>
<path fill="#000000" opacity="1.000000" stroke="none" 
	d="
M692.795776,776.176270 
	C694.118774,773.105530 696.242493,772.217224 698.946411,773.104614 
	C700.837585,773.725281 701.800903,775.396606 701.872375,777.300659 
	C701.956909,779.551147 700.481384,781.156616 698.508484,781.656128 
	C694.396729,782.697266 692.825134,780.359436 692.795776,776.176270 
z"/>
<path fill="#000000" opacity="1.000000" stroke="none" 
	d="
M193.837891,548.249268 
	C193.202286,545.368652 194.201248,543.599365 196.732620,543.114746 
	C198.585617,542.760071 199.848404,543.980835 200.594971,545.621216 
	C201.320343,547.215088 200.825714,548.652161 199.517212,549.596497 
	C197.413757,551.114624 195.480194,550.739685 193.837891,548.249268 
z"/>
<path fill="#000000" opacity="1.000000" stroke="none" 
	d="
M480.696838,213.820435 
	C478.465576,215.372955 476.731659,215.287842 475.422363,213.173721 
	C474.534576,211.740173 474.745087,210.351089 475.937592,209.177414 
	C477.102234,208.031204 478.489838,207.651703 479.925934,208.593628 
	C481.866974,209.866714 482.414581,211.530670 480.696838,213.820435 
z"/>
<path fill="#000000" opacity="1.000000" stroke="none" 
	d="
M596.533813,250.522430 
	C598.626404,248.407303 600.316711,248.649445 601.457153,250.958221 
	C602.253601,252.570602 601.549744,254.093857 599.866882,254.448105 
	C597.110291,255.028366 595.814331,253.703094 596.533813,250.522430 
z"/>
<path fill="#000000" opacity="1.000000" stroke="none" 
	d="
M702.359985,288.208984 
	C704.326782,290.584778 704.048401,292.424072 701.408264,293.350250 
	C699.808105,293.911621 698.334229,292.983063 698.123840,291.332367 
	C697.765015,288.515961 699.410767,287.571259 702.359985,288.208984 
z"/>
<path fill="#000000" opacity="1.000000" stroke="none" 
	d="
M840.422119,517.211365 
	C839.619141,514.108765 840.796265,512.653381 843.588867,512.959961 
	C845.336182,513.151855 846.242249,514.692200 845.675049,516.259338 
	C844.732483,518.863403 842.864868,519.304565 840.422119,517.211365 
z"/>
<path fill="#000000" opacity="1.000000" stroke="none" 
	d="
M830.708252,549.780273 
	C831.892273,552.315186 831.573975,554.095215 828.798401,554.315552 
	C826.772583,554.476257 825.585083,553.091675 825.968872,551.171875 
	C826.493652,548.546509 828.290161,548.257812 830.708252,549.780273 
z"/>
<path fill="#000000" opacity="1.000000" stroke="none" 
	d="
M224.965988,424.127716 
	C222.327621,425.662994 220.832794,424.723236 220.460510,422.303955 
	C220.199951,420.610657 221.378876,419.316589 223.117279,419.584198 
	C225.556580,419.959686 226.370209,421.538544 224.965988,424.127716 
z"/>
<path fill="#000000" opacity="1.000000" stroke="none" 
	d="
M246.725739,445.781982 
	C249.585510,445.138641 251.031754,446.226562 250.699493,448.786865 
	C250.481155,450.469421 248.970016,451.459747 247.331894,450.759979 
	C244.936707,449.736816 244.807617,447.922394 246.725739,445.781982 
z"/>
<path fill="#000000" opacity="1.000000" stroke="none" 
	d="
M301.910431,260.196655 
	C304.351501,261.740417 304.543610,263.395538 302.447876,264.925110 
	C301.206970,265.830841 299.785065,265.374817 299.135040,264.062958 
	C297.935059,261.641296 299.138763,260.430481 301.910431,260.196655 
z"/>
<path fill="#000000" opacity="1.000000" stroke="none" 
	d="
M400.882202,232.105042 
	C402.219269,229.532700 403.822021,228.986923 405.557068,231.045410 
	C406.548737,232.221954 406.149780,233.680267 404.932312,234.457565 
	C402.716766,235.872086 401.258148,235.128540 400.882202,232.105042 
z"/>
<path fill="#000000" opacity="1.000000" stroke="none" 
	d="
M812.100952,432.348145 
	C813.961975,430.362579 815.583252,430.500610 816.615723,432.555115 
	C817.422974,434.161438 816.502625,435.591370 814.878967,435.915741 
	C812.472229,436.396637 811.713623,434.886353 812.100952,432.348145 
z"/>
<path fill="#000000" opacity="1.000000" stroke="none" 
	d="
M198.845825,461.306061 
	C200.628204,459.492157 202.211807,459.316406 203.264359,461.534729 
	C203.818481,462.702515 203.175659,463.909760 201.965668,464.284912 
	C199.699661,464.987457 198.560745,463.993103 198.845825,461.306061 
z"/>
<path fill="#000000" opacity="1.000000" stroke="none" 
	d="
M543.263916,528.908813 
	C544.548950,532.717834 544.620239,536.491699 547.066772,540.624451 
	C548.246216,535.415588 547.527039,531.054321 547.676941,526.764893 
	C547.768616,524.141541 547.713684,521.692627 551.429504,521.633972 
	C555.124329,521.575806 555.287537,523.912170 555.281738,526.606689 
	C555.254272,539.430481 555.253723,552.254333 555.253357,565.078125 
	C555.253235,567.565613 554.988403,569.747437 551.790405,570.136963 
	C548.659363,570.518433 546.667114,569.493164 545.835266,566.320068 
	C544.083130,559.637146 542.247803,552.976074 540.143860,545.184875 
	C537.575134,549.479492 538.594910,552.987122 538.424561,556.288330 
	C538.253113,559.610718 538.333984,562.948486 538.371399,566.278687 
	C538.398987,568.727722 537.307007,569.999390 534.817566,570.060120 
	C532.277405,570.122070 531.120361,568.679321 531.061646,566.380493 
	C530.947021,561.887268 530.993774,557.389832 530.984070,552.894104 
	C530.966003,544.567200 530.885376,536.239380 530.985046,527.913879 
	C531.014221,525.476318 529.914062,522.088562 534.024963,521.712891 
	C537.652039,521.381409 541.645874,520.779358 542.398193,526.138062 
	C542.512024,526.948853 542.900574,527.721191 543.263916,528.908813 
z"/>
<path fill="#000000" opacity="1.000000" stroke="none" 
	d="
M619.735718,570.049072 
	C609.587585,570.121826 609.613403,570.121887 609.639893,560.300598 
	C609.669556,549.316162 609.879089,538.324402 609.540527,527.350342 
	C609.387756,522.398926 611.050476,520.695618 615.791199,521.585754 
	C616.918030,521.797302 618.123108,521.723511 619.279358,521.627319 
	C632.238586,520.548828 634.656860,530.645996 631.901245,539.868347 
	C631.012939,542.841370 631.125000,544.936340 632.271484,547.763672 
	C634.439270,553.109863 634.767639,558.839722 632.080688,564.203735 
	C629.670166,569.015991 625.009644,569.826721 619.735718,570.049072 
M618.144287,553.664124 
	C618.164856,554.657837 618.149902,555.653870 618.213440,556.644836 
	C618.341309,558.640198 619.100098,560.233459 621.281189,560.574402 
	C623.741150,560.958801 624.315979,559.112854 624.877136,557.318848 
	C625.323303,555.892456 625.800049,554.476074 625.314392,552.949707 
	C624.678894,550.952759 623.816284,549.187744 621.326721,549.209595 
	C618.939514,549.230530 618.285278,550.816467 618.144287,553.664124 
M624.273865,534.548279 
	C623.805664,531.600464 622.716003,528.878845 619.268127,531.143494 
	C617.210388,532.494995 618.080811,535.404236 618.412598,537.660767 
	C618.600098,538.935608 619.554138,539.696960 620.902588,539.538574 
	C623.405457,539.244446 623.893982,537.292358 624.273865,534.548279 
z"/>
<path fill="#000000" opacity="1.000000" stroke="none" 
	d="
M305.355225,524.648193 
	C307.741333,527.318787 308.371094,530.141968 308.365814,533.259460 
	C308.352325,541.252747 308.530487,549.246521 308.498535,557.239563 
	C308.463501,566.000122 304.520477,570.063782 295.623322,570.166931 
	C282.750275,570.316223 284.792206,570.750305 284.729614,559.697327 
	C284.667328,548.705444 284.828033,537.711182 284.649597,526.721863 
	C284.587738,522.914124 285.648438,521.112183 289.745148,521.584961 
	C294.921783,522.182373 300.515503,520.345032 305.355225,524.648193 
M293.320618,554.179565 
	C293.609558,556.795227 292.387299,560.654907 296.595612,560.703247 
	C300.832062,560.751953 299.885345,556.856812 299.930328,554.256775 
	C300.042053,547.801758 299.934052,541.341797 299.832825,534.885071 
	C299.796234,532.552124 299.039917,530.399597 296.244202,530.472412 
	C293.522522,530.543274 293.392639,532.871338 293.368073,534.870605 
	C293.292816,540.996582 293.327637,547.123962 293.320618,554.179565 
z"/>
<path fill="#000000" opacity="1.000000" stroke="none" 
	d="
M671.833740,529.645935 
	C674.507507,522.836914 678.570923,520.094543 684.346863,520.820618 
	C690.562561,521.601868 693.703064,524.706055 694.534729,531.748047 
	C695.611206,540.863098 695.430603,550.058472 694.813904,559.182495 
	C694.317566,566.526794 689.978882,570.237854 683.193359,570.321167 
	C676.122803,570.407959 672.419678,567.145691 671.522522,559.496216 
	C670.372986,549.696228 671.915100,539.886353 671.833740,529.645935 
M680.276733,557.682007 
	C680.722839,559.406128 681.439148,560.975891 683.585449,560.605591 
	C685.863708,560.212524 686.338196,558.135742 686.377075,556.386536 
	C686.532166,549.411499 686.575317,542.426636 686.353516,535.455200 
	C686.289001,533.428101 685.742432,530.715027 682.833191,530.870605 
	C680.241211,531.009155 679.995300,533.457458 679.985596,535.431946 
	C679.950500,542.567688 680.082092,549.704285 680.276733,557.682007 
z"/>
<path fill="#000000" opacity="1.000000" stroke="none" 
	d="
M664.004639,531.640808 
	C664.143066,540.565857 664.330627,549.062439 664.200623,557.554138 
	C664.077759,565.581543 659.343018,570.333191 651.935242,570.304993 
	C644.580444,570.276978 640.606079,565.895142 640.550232,557.574890 
	C640.497681,549.746704 640.532776,541.917358 640.590210,534.088989 
	C640.649231,526.042786 643.643066,521.837158 649.887634,520.871643 
	C656.740784,519.812073 661.649841,523.430176 664.004639,531.640808 
M655.073303,532.973328 
	C654.232361,531.709045 653.330627,530.299194 651.571655,530.782227 
	C649.513977,531.347290 648.781433,533.321960 648.730530,535.082031 
	C648.534424,541.859009 648.474548,548.648254 648.678650,555.423401 
	C648.739197,557.434570 649.229980,560.269287 652.013611,560.195496 
	C654.908752,560.118652 655.552002,557.426025 655.569580,555.053650 
	C655.622375,547.932373 655.474854,540.809692 655.073303,532.973328 
z"/>
<path fill="#000000" opacity="1.000000" stroke="none" 
	d="
M482.536804,567.438110 
	C482.512787,553.715942 482.686127,540.385620 482.556824,527.058105 
	C482.517395,522.994812 483.788757,521.071045 487.990662,521.603088 
	C488.811493,521.707031 489.655365,521.632080 490.488586,521.634705 
	C503.668945,521.675842 509.306488,530.035034 504.104187,542.345276 
	C502.866669,545.273682 502.992126,547.356628 504.214172,550.188843 
	C506.657227,555.850952 504.671509,562.070923 505.626556,567.996704 
	C505.895813,569.667236 504.135468,569.991394 502.778442,570.052673 
	C500.536743,570.153931 498.413452,569.987549 497.582672,567.284180 
	C496.779053,564.669006 497.076080,561.999695 496.968170,559.345154 
	C496.894012,557.522217 496.872345,555.663940 496.484741,553.896606 
	C496.137085,552.311279 494.897614,551.356323 493.164825,551.446228 
	C491.409363,551.537415 491.031830,552.955994 490.940186,554.281982 
	C490.699860,557.759766 490.667145,561.251465 490.460602,564.732117 
	C490.358521,566.452637 491.120483,568.684998 488.701385,569.411499 
	C486.455505,570.085938 484.066101,570.565552 482.536804,567.438110 
M493.466583,530.229858 
	C490.652588,531.928833 489.141357,538.628540 491.011932,541.292114 
	C492.212128,543.001221 493.752869,542.887939 495.305542,541.836914 
	C498.125488,539.928040 498.484222,534.115845 495.932617,531.164795 
	C495.542603,530.713684 494.797974,530.569275 493.466583,530.229858 
z"/>
<path fill="#000000" opacity="1.000000" stroke="none" 
	d="
M725.702148,561.419250 
	C726.152588,562.553772 726.522888,563.312317 726.725220,564.113281 
	C727.199097,565.989746 729.646362,568.297852 726.489319,569.619385 
	C723.607605,570.825684 720.498291,570.761536 718.953918,567.107849 
	C717.532104,563.743896 716.200806,560.341370 714.746521,556.991882 
	C714.510254,556.447693 713.842651,556.090820 713.147644,555.432678 
	C709.923950,558.370728 711.624573,562.047546 711.385315,565.233398 
	C711.161682,568.210876 710.327087,570.013550 707.055786,569.981140 
	C704.303650,569.953857 702.656189,568.953491 702.668762,565.887939 
	C702.723999,552.408936 702.741089,538.929565 702.705444,525.450500 
	C702.697021,522.268799 704.440125,521.616577 707.182922,521.593811 
	C710.173889,521.568970 711.346741,522.811218 711.335571,525.768860 
	C711.325195,528.504028 710.756836,531.414856 712.886841,534.342896 
	C715.893799,532.182251 717.027222,529.036133 718.199890,526.079529 
	C720.011780,521.511108 723.100342,520.749146 727.809021,522.398254 
	C726.690491,527.059021 724.442871,531.182861 722.026978,535.008911 
	C718.746399,540.204407 718.476440,545.070923 721.150879,550.472229 
	C722.843140,553.889832 724.095886,557.524963 725.702148,561.419250 
z"/>
<path fill="#000000" opacity="1.000000" stroke="none" 
	d="
M324.333496,540.998779 
	C324.346039,546.497375 324.315155,551.497070 324.377869,556.495544 
	C324.408875,558.966858 324.948090,561.520386 327.988007,561.502869 
	C331.036041,561.485229 330.913452,558.714722 330.929688,556.618958 
	C331.006958,546.621521 330.957275,536.622986 330.957550,526.624878 
	C330.957642,523.950378 331.191223,521.575867 334.867920,521.620728 
	C337.672913,521.654968 339.276855,522.515991 339.256470,525.616394 
	C339.184204,536.614319 339.438873,547.620178 339.097107,558.608337 
	C338.854218,566.416016 334.233521,570.617126 327.151764,570.442078 
	C320.064819,570.266846 315.887878,565.885376 315.785004,558.035400 
	C315.645294,547.372192 315.797211,536.705444 315.740936,526.040649 
	C315.725037,523.031067 316.592468,521.343018 320.027893,521.460999 
	C323.191528,521.569580 324.479370,522.782104 324.361755,526.002869 
	C324.185455,530.829041 324.324036,535.666626 324.333496,540.998779 
z"/>
<path fill="#000000" opacity="1.000000" stroke="none" 
	d="
M751.450195,535.171875 
	C749.546875,534.824036 749.031433,533.628418 748.349792,532.445679 
	C747.437988,530.863647 746.031799,529.905884 744.226257,531.205750 
	C742.687256,532.313660 742.324463,533.847595 743.170227,535.612244 
	C744.646301,538.692444 747.160828,540.892639 749.554565,543.198730 
	C754.862732,548.312439 758.193054,554.153931 756.302673,561.861938 
	C754.727722,568.283752 749.514221,571.435974 742.555237,570.217529 
	C737.212585,569.282043 733.385498,563.746948 733.931213,557.856018 
	C734.112305,555.900940 734.934570,554.706360 737.004700,554.733276 
	C738.937927,554.758423 741.258728,554.190369 741.933594,556.883301 
	C742.553711,559.357483 743.516968,562.035278 746.419128,560.324402 
	C749.227966,558.668579 748.362061,555.527283 746.609741,553.351440 
	C744.010010,550.123535 740.888123,547.320374 738.222046,544.140564 
	C734.500061,539.701477 732.820068,534.640198 734.480713,528.825500 
	C735.970154,523.610352 739.992981,520.708862 745.676514,520.751831 
	C751.225525,520.793762 755.313354,523.973022 756.548889,529.207642 
	C757.674744,533.978088 756.958496,534.896545 751.450195,535.171875 
z"/>
<path fill="#000000" opacity="1.000000" stroke="none" 
	d="
M367.552307,565.245972 
	C363.782623,570.455017 358.890320,571.237488 353.536407,569.677734 
	C348.467010,568.200867 346.895844,564.032532 346.514374,559.240723 
	C346.370544,557.434021 345.901062,555.258179 348.511414,554.910583 
	C350.712585,554.617493 353.439362,553.914185 354.193268,557.227539 
	C354.767639,559.751770 356.197571,561.620178 358.634369,560.316833 
	C361.054932,559.022156 360.786682,556.211548 359.296570,554.176941 
	C357.340332,551.505981 355.051849,549.058472 352.750549,546.664490 
	C348.652405,542.401245 346.065887,537.660095 346.567719,531.475098 
	C347.094330,524.984436 350.950165,521.033508 357.444489,520.792358 
	C363.479706,520.568298 367.911560,524.263062 368.901672,530.380859 
	C369.197113,532.206421 369.622437,534.378540 367.312683,535.022095 
	C365.134552,535.629089 362.600922,536.056396 361.204895,533.295715 
	C360.277069,531.460938 359.746552,528.389038 356.851379,530.284546 
	C354.411896,531.881775 354.726807,534.878174 356.313721,537.003418 
	C358.592224,540.054932 361.357056,542.744019 363.922485,545.580505 
	C369.057892,551.258484 370.811737,557.604187 367.552307,565.245972 
z"/>
<path fill="#000000" opacity="1.000000" stroke="none" 
	d="
M472.116608,549.083618 
	C470.670685,549.977173 469.564636,550.989502 468.338837,551.164856 
	C459.839569,552.380737 461.179291,554.880432 461.089050,561.471252 
	C461.063995,563.297241 461.140869,565.136963 460.941711,566.945190 
	C460.661285,569.491821 458.752869,570.046265 456.589203,570.016357 
	C454.343048,569.985352 452.712158,569.221375 452.713348,566.567688 
	C452.719513,552.614502 452.707672,538.661316 452.685822,524.708130 
	C452.682251,522.423889 453.914459,521.351440 456.048889,521.267639 
	C458.202667,521.183105 460.367004,521.163208 462.518921,521.270996 
	C471.886810,521.740234 475.352142,525.291138 475.300903,534.628479 
	C475.274078,539.514832 476.421936,544.715637 472.116608,549.083618 
M461.414612,532.378967 
	C460.890747,535.162659 460.993469,537.960266 461.379028,540.737549 
	C461.577118,542.164612 462.519867,543.158447 463.995972,543.301941 
	C465.638519,543.461670 466.355865,542.283020 466.642242,540.919861 
	C467.187622,538.323425 467.472229,535.642090 466.759033,533.079346 
	C465.948517,530.166992 464.208893,529.337097 461.414612,532.378967 
z"/>
<path fill="#000000" opacity="1.000000" stroke="none" 
	d="
M414.623474,530.398254 
	C415.588806,532.508545 415.272491,534.772827 417.376526,536.265747 
	C420.435852,534.404358 420.014984,530.864746 421.153076,528.133484 
	C421.788544,526.608398 422.062775,524.930786 422.719055,523.416931 
	C423.821686,520.873535 426.039154,520.940979 428.241730,521.482422 
	C430.963318,522.151428 430.174103,524.085266 429.635590,525.863892 
	C428.093933,530.955505 426.722046,536.107178 424.958313,541.120911 
	C422.337494,548.571228 420.618805,556.105286 421.299194,564.067200 
	C421.557281,567.087036 421.318298,569.832825 417.196075,569.935120 
	C413.075470,570.037292 412.555511,567.392334 412.864319,564.296387 
	C414.152527,551.381226 408.529572,539.918457 405.336761,527.945740 
	C404.873199,526.207520 403.799042,524.608154 404.152283,522.702332 
	C410.678894,519.697205 412.247589,520.816101 414.623474,530.398254 
z"/>
<path fill="#000000" opacity="1.000000" stroke="none" 
	d="
M382.753082,549.002197 
	C382.748383,544.004822 382.764740,539.506348 382.726410,535.008240 
	C382.701202,532.050903 381.737274,529.760010 378.369598,529.338989 
	C375.483948,528.978149 375.081268,526.937683 375.209747,524.585693 
	C375.362732,521.784668 377.393707,521.629883 379.494965,521.619812 
	C384.657715,521.594971 389.820465,521.569092 394.983215,521.561157 
	C397.190491,521.557800 398.994965,522.103333 399.052277,524.810852 
	C399.099274,527.034424 398.490112,528.856323 395.929840,529.108459 
	C391.893768,529.505920 391.312775,532.268677 391.315308,535.531921 
	C391.322784,545.195496 391.246582,554.859619 391.342072,564.522217 
	C391.374603,567.814941 390.713654,570.112793 386.768555,570.006287 
	C382.944702,569.902954 382.710968,567.385254 382.740448,564.496155 
	C382.791412,559.498291 382.752258,554.499634 382.753082,549.002197 
z"/>
<path fill="#000000" opacity="1.000000" stroke="none" 
	d="
M566.608093,529.244385 
	C563.262390,528.687134 562.401123,526.766296 562.793823,524.094849 
	C563.219666,521.198181 565.595337,521.699890 567.485718,521.675293 
	C572.640991,521.608398 577.798035,521.686523 582.954407,521.690186 
	C585.202576,521.691833 586.332153,522.743591 586.286255,525.034851 
	C586.248901,526.899475 586.384644,529.025574 583.847839,529.188843 
	C578.964844,529.503052 578.474915,532.862305 578.451416,536.566406 
	C578.392334,545.881409 578.355774,555.197021 578.394958,564.511963 
	C578.407166,567.421875 578.199158,569.967712 574.365479,569.914734 
	C570.307495,569.858643 570.147827,567.102112 570.146484,564.042358 
	C570.142273,554.407410 570.066223,544.772034 569.951294,535.137695 
	C569.923157,532.784424 569.723022,530.391541 566.608093,529.244385 
z"/>
<path fill="#000000" opacity="1.000000" stroke="none" 
	d="
M522.285278,552.996216 
	C522.280457,557.478638 522.208557,561.463440 522.290466,565.445129 
	C522.346985,568.197266 521.486023,569.945862 518.415771,569.981628 
	C515.610046,570.014343 513.952515,568.814026 513.950867,565.896667 
	C513.943298,552.453552 513.962524,539.010376 513.995728,525.567261 
	C514.002930,522.642090 515.537842,521.535339 518.440674,521.609070 
	C521.591736,521.689087 522.321838,523.387512 522.304932,526.106628 
	C522.250244,534.903259 522.284058,543.700378 522.285278,552.996216 
z"/>
<path fill="#000000" opacity="1.000000" stroke="none" 
	d="
M259.782715,580.999023 
	C261.302917,581.030396 262.523041,580.934509 263.165192,582.759949 
	C260.089844,584.623840 256.968262,585.456238 253.188629,583.933105 
	C254.806274,581.363281 257.294220,581.611572 259.782715,580.999023 
z"/>
<path fill="#000000" opacity="1.000000" stroke="none" 
	d="
M769.168335,543.382568 
	C767.384216,543.174194 765.765625,543.836975 764.568298,541.801941 
	C768.328430,540.082214 771.820801,540.484863 776.128967,541.814026 
	C773.758423,543.949341 771.553284,543.111145 769.168335,543.382568 
z"/>
<path fill="#000000" opacity="1.000000" stroke="none" 
	d="
M503.384583,296.467590 
	C500.912842,292.599823 502.320801,289.802887 505.261017,287.634064 
	C507.478058,285.998627 509.737518,286.866058 511.526733,288.607849 
	C513.690491,290.714325 514.077271,293.379181 512.359802,295.804138 
	C509.952148,299.203522 506.905121,299.857971 503.384583,296.467590 
z"/>
<path fill="#000000" opacity="1.000000" stroke="none" 
	d="
M318.122559,315.224243 
	C319.397583,312.834808 320.953766,312.438446 322.546021,314.260223 
	C323.540833,315.398499 323.392883,316.933746 322.017700,317.679871 
	C319.895844,318.831024 318.586212,317.813782 318.122559,315.224243 
z"/>
<path fill="#000000" opacity="1.000000" stroke="none" 
	d="
M672.967834,355.966064 
	C674.061279,358.339630 676.447205,358.205078 678.459473,358.816925 
	C680.316772,359.381683 682.499939,359.598206 682.664490,362.630920 
	C678.076233,365.332703 674.094482,359.486267 669.265381,361.635834 
	C671.158813,364.372437 675.291138,363.294312 676.927185,366.085693 
	C673.551758,369.228424 655.992554,364.157166 649.788452,358.036377 
	C655.681885,356.114014 659.908081,362.507050 665.421936,360.236237 
	C663.429932,355.462158 656.745117,357.941711 653.839172,353.048615 
	C660.918396,350.887787 665.990479,357.338623 672.583618,356.024841 
	C672.998596,355.998260 672.967834,355.966064 672.967834,355.966064 
z"/>
<path fill="#000000" opacity="1.000000" stroke="none" 
	d="
M642.382874,379.339355 
	C644.955811,376.241913 648.580322,377.178925 651.680847,376.238434 
	C648.817078,374.415009 645.253723,374.608826 643.076965,371.926331 
	C645.720947,369.686432 656.755798,372.466583 661.671936,376.468262 
	C661.404297,378.085724 658.163452,378.160858 659.883301,381.399994 
	C661.066650,383.628815 657.664551,383.788605 655.768066,383.000885 
	C652.881653,381.801971 650.050293,380.571899 646.616516,381.075165 
	C648.802246,383.687927 652.683350,382.833588 654.591248,385.543579 
	C650.570496,388.419739 643.432434,387.148834 638.080383,382.679077 
	C638.355347,380.318848 640.658630,380.482361 642.382874,379.339355 
z"/>
<path fill="#000000" opacity="1.000000" stroke="none" 
	d="
M675.851807,335.688477 
	C673.451111,332.632355 676.506470,331.831024 677.570618,332.370026 
	C686.011719,336.645416 696.216736,335.868378 704.876892,342.088318 
	C700.585510,342.846954 701.583801,349.097565 696.442932,348.310394 
	C693.232239,347.818756 689.842163,347.731689 688.226868,344.503357 
	C688.811035,341.811249 691.349915,343.588013 692.487244,341.832001 
	C686.941467,339.808075 681.544495,337.838501 675.851807,335.688477 
z"/>
<path fill="#000000" opacity="1.000000" stroke="none" 
	d="
M711.502380,333.537231 
	C705.170776,331.964691 699.239136,330.465698 693.301331,328.992035 
	C691.940491,328.654297 690.582275,328.201141 690.744995,326.519745 
	C690.917480,324.737457 692.553223,324.492981 693.780823,324.808228 
	C701.688293,326.838928 709.555664,329.025696 717.618958,331.210724 
	C716.498718,334.777374 714.157410,334.089569 711.502380,333.537231 
z"/>
<path fill="#000000" opacity="1.000000" stroke="none" 
	d="
M679.590942,323.140106 
	C682.763245,320.230713 685.381836,321.844666 688.046143,323.789215 
	C683.581360,331.723541 670.061890,330.550049 664.354431,321.097015 
	C668.760620,322.811310 672.384705,324.310516 676.075989,325.620392 
	C677.959534,326.288788 680.278687,327.121613 679.590942,323.140106 
z"/>
<path fill="#000000" opacity="1.000000" stroke="none" 
	d="
M611.810791,393.880432 
	C611.941040,392.626221 612.660767,391.926483 613.487549,392.352753 
	C620.111633,395.768402 627.846619,394.847687 634.570251,397.839783 
	C636.353455,398.633331 638.392334,399.052887 639.053345,402.861847 
	C629.185913,401.043518 620.229858,398.787933 611.810791,393.880432 
z"/>
<path fill="#000000" opacity="1.000000" stroke="none" 
	d="
M633.132935,394.608887 
	C628.530090,393.979767 623.986267,394.151855 620.700562,388.390045 
	C629.913635,389.510651 636.934021,392.989899 644.133362,396.079865 
	C640.039185,398.773438 636.760681,396.837952 633.132935,394.608887 
z"/>
<path fill="#000000" opacity="1.000000" stroke="none" 
	d="
M649.360046,391.651001 
	C641.489014,393.453400 635.708801,388.877625 629.093079,386.476807 
	C629.629517,385.323486 629.770142,384.784424 629.894287,384.788177 
	C637.078552,385.005554 643.832336,386.547058 649.360046,391.651001 
z"/>
<path fill="#000000" opacity="1.000000" stroke="none" 
	d="
M654.561768,366.991028 
	C661.204956,365.405426 666.398804,368.489105 671.546143,371.788177 
	C665.135681,372.984863 659.606445,370.825012 654.561768,366.991028 
z"/>
<path fill="#000000" opacity="1.000000" stroke="none" 
	d="
M672.997559,354.016449 
	C677.593445,351.912445 684.787537,353.416962 689.114380,357.944122 
	C683.280457,360.364624 678.734070,355.708130 673.376770,356.020264 
	C672.967834,355.966064 672.998596,355.998260 673.014160,356.014404 
	C673.028931,355.570831 673.028076,355.111084 673.021057,354.319702 
	C673.014832,353.988007 672.997559,354.016449 672.997559,354.016449 
z"/>
<path fill="#000000" opacity="1.000000" stroke="none" 
	d="
M679.858398,348.152679 
	C673.420166,348.600891 668.088257,345.806030 662.647949,343.078857 
	C663.633972,340.803741 664.881897,341.388458 665.897766,341.739502 
	C670.628662,343.374146 675.788269,343.902802 679.967529,347.537964 
	C680.016724,347.970947 679.858398,348.152679 679.858398,348.152679 
z"/>
<path fill="#000000" opacity="1.000000" stroke="none" 
	d="
M680.094238,347.878754 
	C685.538513,347.122833 690.359863,348.516571 695.521240,351.171173 
	C691.516724,353.535706 683.695557,352.000427 680.028748,348.472534 
	C679.858398,348.152679 680.016724,347.970947 680.094238,347.878754 
z"/>
<path fill="#000000" opacity="1.000000" stroke="none" 
	d="
M633.044678,375.193054 
	C631.039795,374.057404 629.377869,373.060486 627.715942,372.063599 
	C633.535461,371.194855 638.182983,373.974304 643.401062,375.688812 
	C641.023499,378.231415 641.023499,378.231415 633.044678,375.193054 
z"/>
<path fill="#000000" opacity="1.000000" stroke="none" 
	d="
M710.303589,335.142456 
	C713.775574,337.622070 711.789185,338.850708 709.480896,338.638153 
	C706.349609,338.349823 703.107910,337.626862 699.843811,335.400970 
	C703.447327,331.717316 706.785034,334.657288 710.303589,335.142456 
z"/>
<path fill="#000000" opacity="1.000000" stroke="none" 
	d="
M674.414795,341.093658 
	C673.694641,338.181488 675.844238,338.782776 677.006165,338.894012 
	C680.415222,339.220398 683.484070,340.514069 686.612488,343.202911 
	C681.756165,345.154419 678.250366,342.946289 674.414795,341.093658 
z"/>
<path fill="#000000" opacity="1.000000" stroke="none" 
	d="
M673.026489,353.975037 
	C668.146729,353.896912 663.549133,352.982269 658.574585,349.463715 
	C665.185791,347.412811 668.795105,350.659058 672.762512,353.771759 
	C672.997559,354.016449 673.014832,353.988007 673.026489,353.975037 
z"/>
<path fill="#000000" opacity="1.000000" stroke="none" 
	d="
M650.473022,364.005219 
	C651.239319,364.587067 652.075623,365.000519 652.095032,365.449280 
	C652.141296,366.520721 651.105652,366.830231 650.339905,366.534668 
	C646.441772,365.029968 642.098938,364.469971 638.957581,361.092346 
	C643.090881,360.388092 646.609375,362.217621 650.473022,364.005219 
z"/>
<path fill="#000000" opacity="1.000000" stroke="none" 
	d="
M687.475830,332.380249 
	C689.836548,327.435120 692.684265,330.973206 695.471985,332.022186 
	C693.145691,334.575470 690.664612,335.809357 687.475830,332.380249 
z"/>
<path fill="#000000" opacity="1.000000" stroke="none" 
	d="
M628.052246,376.757172 
	C630.627625,377.329895 632.926025,377.726929 633.937256,380.735779 
	C630.043579,381.928375 627.321472,380.454742 624.742737,378.347717 
	C625.289185,376.445282 626.588318,376.811676 628.052246,376.757172 
z"/>
<path fill="#000000" opacity="1.000000" stroke="none" 
	d="
M671.023804,316.963684 
	C672.921936,317.597504 674.429138,318.221100 675.116577,319.913483 
	C671.561829,322.581757 670.000122,321.990936 667.624939,317.226349 
	C668.488342,315.750488 669.655701,316.815063 671.023804,316.963684 
z"/>
<path fill="#000000" opacity="1.000000" stroke="none" 
	d="
M419.365906,743.985840 
	C419.227417,741.118713 419.244781,741.053406 422.306732,741.867798 
	C427.727966,743.309814 433.125793,744.840027 438.674713,745.860413 
	C429.619110,741.419495 419.833710,739.159180 410.264679,736.337524 
	C393.042450,731.259338 375.708130,726.561462 358.423706,721.693848 
	C356.572021,721.172485 354.462799,720.966919 353.436737,717.278259 
	C394.839325,728.207397 435.132019,739.886902 475.145355,752.737610 
	C472.336945,754.702759 469.668213,752.565369 466.855469,753.358826 
	C465.291077,754.055603 467.640564,755.860474 465.459229,757.071289 
	C450.403412,753.508301 434.880280,749.409546 419.365906,743.985840 
z"/>
<path fill="#000000" opacity="1.000000" stroke="none" 
	d="
M396.219971,715.894348 
	C360.447845,706.617676 325.260803,696.763977 290.324707,686.020813 
	C289.671936,685.820068 289.033203,685.573547 288.965546,684.352966 
	C333.314209,695.231445 377.070374,707.141174 420.385956,720.733093 
	C412.017731,721.130188 404.496185,717.700867 396.219971,715.894348 
z"/>
<path fill="#000000" opacity="1.000000" stroke="none" 
	d="
M474.697388,731.391235 
	C460.197388,727.726440 446.150024,723.949341 431.251221,719.126038 
	C436.085907,716.947754 476.969391,728.044861 480.202423,731.471252 
	C478.479614,733.020386 476.781677,731.739197 474.697388,731.391235 
z"/>
<path fill="#000000" opacity="1.000000" stroke="none" 
	d="
M440.180237,756.054077 
	C441.656860,752.812134 443.143707,752.954285 446.237701,756.664368 
	C444.118103,758.522217 442.327911,756.530334 440.180237,756.054077 
z"/>
<path fill="#000000" opacity="1.000000" stroke="none" 
	d="
M417.555878,613.281799 
	C428.749573,617.047241 440.037872,618.894043 451.841766,621.914490 
	C445.638397,624.473511 403.453949,614.476440 398.270233,608.801147 
	C404.564453,610.266663 410.858673,611.732178 417.555878,613.281799 
z"/>
<path fill="#000000" opacity="1.000000" stroke="none" 
	d="
M441.364594,636.511597 
	C453.061218,639.900452 464.640778,642.287170 475.467896,647.185791 
	C459.654205,645.021973 444.358887,640.961792 428.475952,635.444702 
	C431.771271,634.094727 431.771271,634.094727 441.364594,636.511597 
z"/>
</svg>